<svg width="166" height="40" viewBox="0 0 166 40" fill="none" xmlns="http://www.w3.org/2000/svg">
<path d="M100.825 13.6029C96.0375 13.5606 92.468 17.0541 92.4595 21.7952C92.451 26.5364 95.9569 29.9833 100.728 30.0172C105.498 30.051 109.08 26.5956 109.11 21.8629C109.14 17.1302 105.685 13.6494 100.825 13.6029ZM100.74 26.5152C98.0791 26.5152 96.2243 24.557 96.2285 21.7952C96.2328 19.0335 98.1342 17.0583 100.812 17.071C103.491 17.0837 105.35 19.0335 105.341 21.8375C105.333 24.6416 103.461 26.5364 100.74 26.5152Z" fill="#0D1D4A"/>
<path d="M143.923 22.0111C146.469 19.6554 147.089 16.7033 145.901 13.4847C144.78 10.4395 142.399 8.95925 139.207 8.83237C134.649 8.64204 131.232 11.7084 131.168 16.0223C131.143 17.9171 131.724 19.5496 133.231 20.7719C133.673 21.1785 134.299 21.3214 134.875 21.1475C135.45 20.9736 135.891 20.5089 136.032 19.9261C136.211 19.2071 135.88 18.6319 135.502 18.0609C134.593 16.8371 134.56 15.1741 135.421 13.9161C136.397 12.402 137.947 12.1271 139.61 12.3893C141.062 12.5519 142.243 13.6306 142.53 15.058C143.039 16.718 142.526 18.5208 141.219 19.6681C140.761 20.091 140.264 20.4801 139.763 20.8608C137.327 22.7301 134.888 24.5981 132.446 26.4647C131.72 27.023 131.495 27.6489 131.72 28.3806C131.959 29.1688 132.673 29.7192 133.498 29.7509C133.63 29.7509 133.757 29.7509 133.889 29.7509H144.228C144.422 29.7636 144.616 29.7636 144.81 29.7509C145.726 29.6781 146.432 28.9157 146.431 28C146.449 27.5512 146.288 27.1135 145.982 26.7835C145.677 26.4535 145.252 26.2581 144.801 26.2405C144.046 26.1813 143.286 26.2067 142.526 26.2025H138.706L138.655 26.0671C138.914 25.8768 139.173 25.6907 139.428 25.4962C140.913 24.3415 142.53 23.2969 143.923 22.0111Z" fill="#0D1D4A"/>
<path d="M57.834 14.2797C55.541 13.3381 52.9649 13.3518 50.6822 14.3177C45.4701 16.3563 44.4854 23.6224 47.9446 27.4035C50.6737 30.3936 56.0386 31.0788 58.4536 27.9744C58.5001 28.0483 58.5398 28.1262 58.5725 28.207C58.9417 29.3744 59.6633 29.8988 60.6947 29.7508C61.7261 29.6027 62.2778 28.8584 62.2821 27.7037C62.2821 25.3311 62.3457 22.9541 62.2566 20.5815C62.1335 17.5659 60.6225 15.4343 57.834 14.2797ZM58.4027 23.1318C57.9783 25.3353 56.5097 26.5153 54.2729 26.5153C51.9725 26.5153 50.1729 25.183 49.8206 23.0641C49.6697 22.1754 49.6827 21.2668 49.8588 20.3827C50.3596 18.0734 52.4606 16.7835 55.003 17.1007C57.4477 17.401 58.53 18.7713 58.564 21.5711C58.5131 22.0829 58.5003 22.6031 58.4027 23.1318Z" fill="#0D1D4A"/>
<path d="M162.954 21.3259C162.148 21.3259 161.342 21.457 160.497 21.5289V20.3193C160.497 18.7925 160.005 18.1623 158.799 18.1623C157.594 18.1623 157.08 18.7967 157.08 20.277V21.6135L153.536 21.2371C153.651 21.0468 153.753 20.8649 153.867 20.6873C155.735 17.8338 157.602 14.979 159.47 12.1227C159.645 11.8761 159.797 11.6142 159.924 11.3403C160.143 10.8612 160.141 10.3106 159.918 9.83314C159.695 9.35572 159.274 8.99932 158.765 8.85765C157.916 8.57851 157.034 8.92955 156.456 9.86425C153.995 13.8483 151.533 17.8366 149.105 21.8419C148.142 23.4237 148.956 24.8025 150.803 24.8321C152.343 24.8321 153.88 24.8321 155.421 24.8321C156.567 24.8321 156.919 25.1916 156.957 26.3462C156.978 26.9933 156.957 27.6446 156.991 28.2917C157.076 29.311 157.789 29.8862 158.85 29.8608C159.313 29.8882 159.767 29.7207 160.1 29.3991C160.433 29.0775 160.616 28.6312 160.603 28.1691C160.624 27.5642 160.603 26.9594 160.624 26.3546C160.688 25.1535 161.028 24.8405 162.224 24.8236H162.942C164.181 24.7982 164.89 24.1554 164.886 23.0557C164.881 21.9561 164.185 21.309 162.954 21.3259Z" fill="#0D1D4A"/>
<path d="M120.264 13.6114C115.872 13.4041 112.298 16.4239 112.132 20.7548C111.979 24.7896 112.073 28.8329 112.094 32.872C112.085 33.3448 112.268 33.8013 112.601 34.1381C112.934 34.4749 113.389 34.6634 113.864 34.661C114.821 34.7309 115.663 34.0372 115.774 33.0877C115.823 32.7247 115.844 32.3585 115.838 31.9923C115.838 30.6643 115.838 29.332 115.838 28.059C116.55 28.6045 117.307 29.0897 118.1 29.5096C119.782 30.209 121.672 30.2272 123.367 29.5604C128.753 27.6487 129.691 20.5941 126.907 16.8426C125.256 14.6264 122.951 13.7425 120.264 13.6114ZM124.407 23.4574C123.902 25.4241 122.344 26.5533 120.307 26.5702C118.27 26.5871 116.606 25.5002 116.063 23.7027C115.926 23.1191 115.828 22.5271 115.77 21.9306H115.829C115.85 21.5668 115.829 21.1947 115.901 20.8352C116.266 18.3906 117.803 17.0287 120.146 17.0837C122.489 17.1387 124.36 18.6782 124.577 21.017C124.66 21.8342 124.603 22.6596 124.407 23.4574Z" fill="#0D1D4A"/>
<path d="M89.688 13.5988H80.2909C79.2837 13.6464 78.4917 14.474 78.4917 15.4788C78.4917 16.4835 79.2837 17.3111 80.2909 17.3587H83.2365V28.1183C83.2843 29.1219 84.1148 29.9112 85.1232 29.9112C86.1315 29.9112 86.962 29.1219 87.0098 28.1183V17.3587H89.688C90.3834 17.3916 91.0405 17.0407 91.3981 16.4454C91.7557 15.8502 91.7557 15.1073 91.3981 14.5121C91.0405 13.9169 90.3834 13.5659 89.688 13.5988Z" fill="#0D1D4A"/>
<path d="M76.891 22.5862C75.9735 21.8187 74.8415 21.3507 73.6483 21.2454H73.6186L73.6483 21.2158C74.667 21.0775 75.6199 20.6352 76.3817 19.947C77.0364 19.339 77.402 18.483 77.3876 17.5913C77.3876 14.9267 74.9372 13.5945 70.0363 13.5945C69.0092 13.5945 67.8972 13.6452 66.7002 13.7467C66.2106 13.7733 65.752 13.9941 65.4269 14.36C65.104 14.7217 64.9297 15.1913 64.9388 15.6753V27.9406C64.9334 28.4222 65.109 28.8884 65.4312 29.2475C65.739 29.6171 66.1854 29.8448 66.6663 29.8776C67.9651 29.9834 69.1662 30.0341 70.2782 30.0341C75.4705 30.0341 78.0653 28.4241 78.0624 25.2042C78.0805 24.2016 77.6515 23.2428 76.891 22.5862ZM69.0177 16.6016C69.007 16.4506 69.1139 16.3166 69.2638 16.2928C69.7604 16.2505 70.1127 16.2294 70.3759 16.2294C72.4981 16.2294 73.5592 16.8455 73.5592 18.0776C73.5671 18.7036 73.2275 19.2828 72.6763 19.5833C71.9469 19.9896 71.1169 20.1817 70.2825 20.1373H69.2978C69.111 20.1373 69.0177 20.057 69.0177 19.892V16.6016ZM70.4565 27.3611C70.0651 27.3686 69.6737 27.3488 69.2851 27.3019C69.0983 27.2596 69.0049 27.1581 69.0049 26.9932V22.9076C69.0049 22.7427 69.0983 22.6623 69.2851 22.6623H70.3631C72.8758 22.6623 74.1322 23.4109 74.1322 24.9081C74.1406 26.5435 72.9154 27.3611 70.4565 27.3611Z" fill="#0D1D4A"/>
<mask id="mask0_5002_57415" style="mask-type:alpha" maskUnits="userSpaceOnUse" x="0" y="0" width="45" height="40">
<path d="M12.2829 1.31267C19.7006 -1.56811 28.1325 0.38884 33.5094 6.23916C33.5039 6.24072 33.4984 6.24229 33.4928 6.24386L33.5307 6.28568L33.6622 6.42525C33.7344 6.50138 33.7981 6.58174 33.866 6.65787C35.65 8.72533 36.9814 11.1411 37.775 13.7506C38.2571 15.3654 38.5254 17.036 38.573 18.7201V18.7624C38.5772 18.9485 38.5815 19.1261 38.5093 19.2995V20.5049C38.5087 20.5055 38.5081 20.5061 38.5075 20.5067L38.5815 20.5218V33.7471C38.5803 35.2719 39.1877 36.7345 40.2697 37.8126C41.3516 38.8908 42.8194 39.496 44.3496 39.4949H19.2738C13.0026 39.4988 7.1212 36.4636 3.50592 31.3575C3.58288 31.3619 3.65984 31.3661 3.73681 31.3701L3.67702 31.3596L3.60778 31.3533H3.50592C2.5011 29.9731 1.7099 28.4505 1.15878 26.8363C1.16047 26.8222 1.16047 26.808 1.15878 26.794L0.988199 26.3051C0.332654 24.3417 -0.00136928 22.2846 3.00788e-05 20.2131V19.253C-0.0139769 11.3199 4.86515 4.19346 12.2829 1.31267ZM25.3525 12.3802C22.4276 9.99505 18.3865 9.4628 14.9303 11.031C11.378 12.6428 9.09968 16.1756 9.10425 20.065V20.5599C9.10321 21.9797 9.40864 23.3832 9.99982 24.6751C9.99466 24.6771 9.98951 24.679 9.98435 24.681L10.0041 24.6751L10.1388 24.9526C11.3881 27.4271 13.6185 29.2763 16.2985 30.0464L16.2178 30.0633C16.1943 30.0697 16.1711 30.0763 16.1483 30.0831L16.2985 30.0464C17.1907 30.2968 18.1134 30.4235 19.0403 30.4228H29.0019L29.0014 23.9737L28.9425 23.918V19.9847C28.9434 19.5818 28.9193 19.1792 28.8703 18.7793C28.8618 18.7032 28.8534 18.6609 28.8364 18.5467C28.8194 18.4325 28.7812 18.3225 28.7812 18.2083C28.7303 17.9292 28.6666 17.6501 28.586 17.3625L28.5677 17.284C28.5567 17.2323 28.5463 17.1806 28.5265 17.1214C28.4968 17.0326 28.4629 16.9522 28.4332 16.8676V16.8211C28.3228 16.5039 28.204 16.2036 28.0724 15.9202L28.0299 15.8314C27.9026 15.565 27.771 15.3112 27.631 15.0744C27.6013 15.0278 27.58 14.9813 27.5503 14.939L27.3636 14.643L27.1471 14.3258L27.024 14.1566C26.6796 13.6923 26.2947 13.2592 25.8738 12.8624L25.738 12.7355L25.5682 12.579L25.5604 12.5541L25.3525 12.3802Z" fill="white"/>
</mask>
<g mask="url(#mask0_5002_57415)">
<path d="M12.2829 1.31267C19.7006 -1.56811 28.1325 0.38884 33.5094 6.23916C33.5039 6.24072 33.4984 6.24229 33.4928 6.24386L33.5307 6.28568L33.6622 6.42525C33.7344 6.50138 33.7981 6.58174 33.866 6.65787C35.65 8.72533 36.9814 11.1411 37.775 13.7506C38.2571 15.3654 38.5254 17.036 38.573 18.7201V18.7624C38.5772 18.9485 38.5815 19.1261 38.5093 19.2995V20.5049C38.5087 20.5055 38.5081 20.5061 38.5075 20.5067L38.5815 20.5218V33.7471C38.5803 35.2719 39.1877 36.7345 40.2697 37.8126C41.3516 38.8908 42.8194 39.496 44.3496 39.4949H19.2738C13.0026 39.4988 7.1212 36.4636 3.50592 31.3575C3.58288 31.3619 3.65984 31.3661 3.73681 31.3701L3.67702 31.3596L3.60778 31.3533H3.50592C2.5011 29.9731 1.7099 28.4505 1.15878 26.8363C1.16047 26.8222 1.16047 26.808 1.15878 26.794L0.988199 26.3051C0.332654 24.3417 -0.00136928 22.2846 3.00788e-05 20.2131V19.253C-0.0139769 11.3199 4.86515 4.19346 12.2829 1.31267ZM25.3525 12.3802C22.4276 9.99505 18.3865 9.4628 14.9303 11.031C11.378 12.6428 9.09968 16.1756 9.10425 20.065V20.5599C9.10321 21.9797 9.40864 23.3832 9.99982 24.6751C9.99466 24.6771 9.98951 24.679 9.98435 24.681L10.0041 24.6751L10.1388 24.9526C11.3881 27.4271 13.6185 29.2763 16.2985 30.0464L16.2178 30.0633C16.1943 30.0697 16.1711 30.0763 16.1483 30.0831L16.2985 30.0464C17.1907 30.2968 18.1134 30.4235 19.0403 30.4228H29.0019L29.0014 23.9737L28.9425 23.918V19.9847C28.9434 19.5818 28.9193 19.1792 28.8703 18.7793C28.8618 18.7032 28.8534 18.6609 28.8364 18.5467C28.8194 18.4325 28.7812 18.3225 28.7812 18.2083C28.7303 17.9292 28.6666 17.6501 28.586 17.3625L28.5677 17.284C28.5567 17.2323 28.5463 17.1806 28.5265 17.1214C28.4968 17.0326 28.4629 16.9522 28.4332 16.8676V16.8211C28.3228 16.5039 28.204 16.2036 28.0724 15.9202L28.0299 15.8314C27.9026 15.565 27.771 15.3112 27.631 15.0744C27.6013 15.0278 27.58 14.9813 27.5503 14.939L27.3636 14.643L27.1471 14.3258L27.024 14.1566C26.6796 13.6923 26.2947 13.2592 25.8738 12.8624L25.738 12.7355L25.5682 12.579L25.5604 12.5541L25.3525 12.3802Z" fill="url(#paint0_linear_5002_57415)"/>
<path d="M39.9315 20.6498C36.7525 19.9266 33.0182 21.7241 29.3808 24.0629C21.5066 28.3042 17.2722 30.3413 16.6773 30.1744C12.511 31.2906 8.19188 31.7333 3.88477 31.4855C7.50005 36.5916 13.3815 43.5293 19.6526 43.5253L44.7284 39.6229C43.1983 39.624 42.7017 39.0188 41.6197 37.9406C40.5378 36.8625 39.9304 35.3999 39.9315 33.8751V20.6498Z" fill="url(#paint1_linear_5002_57415)"/>
<path d="M9.99982 24.6751C9.40864 23.3832 9.10321 21.9797 9.10426 20.5599V20.065C9.09968 16.1756 11.378 12.6428 14.9303 11.031C18.4825 9.41924 22.6525 10.0262 25.5937 12.5832C27.2589 9.48569 30.1162 7.19572 33.5094 6.23916C28.1325 0.38884 19.7007 -1.56811 12.2829 1.31267C4.86515 4.19346 -0.0139769 11.3199 3.00788e-05 19.253V20.2131C-0.00148589 22.4572 0.390654 24.6844 1.15878 26.794C2.60289 26.6425 4.03606 26.401 5.44984 26.0708C6.99694 25.7105 8.51721 25.2441 9.99982 24.6751Z" fill="url(#paint2_linear_5002_57415)"/>
</g>
<defs>
<linearGradient id="paint0_linear_5002_57415" x1="39.7938" y1="56.5018" x2="7.46202" y2="-25.4131" gradientUnits="userSpaceOnUse">
<stop stop-color="#F85DB9"/>
<stop offset="0.17" stop-color="#EF5CBB"/>
<stop offset="0.45" stop-color="#D558C1"/>
<stop offset="0.81" stop-color="#AC52CB"/>
<stop offset="1" stop-color="#934ED1"/>
</linearGradient>
<linearGradient id="paint1_linear_5002_57415" x1="22.1271" y1="30.8959" x2="28.0044" y2="41.4955" gradientUnits="userSpaceOnUse">
<stop stop-color="#FECF00"/>
<stop offset="0.34" stop-color="#FDC607"/>
<stop offset="1" stop-color="#FAA81C"/>
</linearGradient>
<linearGradient id="paint2_linear_5002_57415" x1="5.10178" y1="8.82959" x2="31.4461" y2="30.6611" gradientUnits="userSpaceOnUse">
<stop stop-color="#6435A5"/>
<stop offset="0.24" stop-color="#6D3AAE"/>
<stop offset="0.63" stop-color="#8747C6"/>
<stop offset="1" stop-color="#934ED1"/>
</linearGradient>
</defs>
</svg>
