<svg width="164" height="65" viewBox="0 0 164 65" fill="none" xmlns="http://www.w3.org/2000/svg">
<path fill-rule="evenodd" clip-rule="evenodd" d="M92.3202 34.9216C93.4215 34.9216 94.2949 35.4112 94.7495 35.9528H94.8189V35.2006H96.7426V43.4904C96.7426 46.8999 94.7321 48.2991 92.3549 48.2991C90.1177 48.2991 88.7713 46.7957 88.2646 45.5713L90.0298 44.8364C90.3445 45.5886 91.1137 46.4809 92.3549 46.4809C93.8761 46.4809 94.8189 45.5365 94.8189 43.7694V43.1051H94.7495C94.2949 43.6652 93.4215 44.1547 92.3202 44.1547C90.0125 44.1547 87.8979 42.1433 87.8979 39.5555C87.8979 36.9493 90.0125 34.9216 92.3202 34.9216ZM19.4422 16.3047C19.4979 16.2957 19.5527 16.2977 19.6054 16.3095C19.6539 16.3176 19.703 16.3313 19.7521 16.351L32.7381 23.0241L38.6037 26.3991C38.6383 26.4077 38.6721 26.4196 38.7046 26.4358L44.7714 29.948C45.0723 30.1487 45.2729 30.4496 45.2729 30.8008C45.2729 31.152 45.0723 31.5033 44.7715 31.6538L38.8213 35.0984C38.7873 35.1275 38.7484 35.1513 38.7046 35.1659L38.6497 35.2201C38.5823 35.2843 38.5342 35.3164 38.4539 35.3164L38.4458 35.3161L32.7381 38.6279L19.7521 45.8529C19.6518 45.9031 19.6017 45.9031 19.5014 45.9031C19.4011 45.9031 19.3008 45.9031 19.2507 45.8529C19.1003 45.7526 19 45.602 19 45.4013V16.8025C19 16.6208 19.0825 16.4395 19.2469 16.3695C19.3064 16.3344 19.3723 16.3127 19.4422 16.3047ZM137.95 35.193L140.358 41.0763H140.428L142.749 35.193H145L139.434 47.9897H137.322L139.381 43.4155L135.769 35.193H137.95ZM20.0028 17.9565V44.1755L33.784 30.8445L20.0028 17.9565ZM34.5408 31.5558L31.7353 34.2579L22.6023 43.0925L32.2367 37.775L37.6237 34.6804L34.5408 31.5558ZM105.499 34.9216C107.894 34.9216 109.066 36.8277 109.45 37.8589L109.659 38.3843L103.489 40.9373C103.961 41.8633 104.695 42.3354 105.726 42.3354C106.758 42.3354 107.475 41.8285 107.999 41.0589L109.572 42.1086C109.066 42.8608 107.842 44.1547 105.726 44.1547C103.105 44.1547 101.148 42.1259 101.148 39.5382C101.148 36.7919 103.122 34.9216 105.499 34.9216ZM60.2918 29.8144C62.4769 29.8144 64.0317 30.672 65.2035 31.7911L63.8223 33.1729C62.9836 32.3859 61.8477 31.7737 60.2918 31.7737C57.4079 31.7737 55.1523 34.0988 55.1523 36.9851C55.1523 39.8703 57.4079 42.1954 60.2918 42.1954C62.1612 42.1954 63.2277 41.4443 63.9102 40.7626C64.4689 40.2025 64.8357 39.3981 64.9756 38.2964H60.2918V36.3382H66.8808C66.9514 36.6877 66.9861 37.1067 66.9861 37.5615C66.9861 39.0312 66.5836 40.8494 65.2903 42.1433C64.0317 43.4557 62.4238 44.1547 60.2918 44.1547C56.3414 44.1547 53.0203 40.9373 53.0203 36.9851C53.0203 33.0329 56.3414 29.8144 60.2918 29.8144ZM72.3122 34.9216C74.8641 34.9216 76.944 36.8625 76.944 39.5382C76.944 42.1954 74.8641 44.1547 72.3122 44.1547C69.7593 44.1547 67.6794 42.1954 67.6794 39.5382C67.6794 36.8625 69.7593 34.9216 72.3122 34.9216ZM82.4166 34.9216C84.9684 34.9216 87.0483 36.8625 87.0483 39.5382C87.0483 42.1954 84.9684 44.1547 82.4166 44.1547C79.8647 44.1547 77.7848 42.1954 77.7848 39.5382C77.7848 36.8625 79.8647 34.9216 82.4166 34.9216ZM131.512 34.8966C133.832 34.8966 135.629 36.2405 135.629 38.6502V43.8519H133.675V42.8044H133.606C133.134 43.5208 132.384 44.1319 131.022 44.1319C129.243 44.1319 127.655 42.9618 127.655 41.1458C127.655 39.1561 129.627 38.0912 131.564 38.0912C132.524 38.0912 133.308 38.4049 133.675 38.6144V38.4755C133.658 37.3574 132.593 36.7289 131.546 36.7289C130.796 36.7289 130.081 36.9743 129.696 37.7243L127.9 36.9743C128.528 35.5425 130.046 34.8966 131.512 34.8966ZM126.538 30.3051V43.8747H124.514V30.3051H126.538ZM118.948 30.3051C121.191 30.3051 123.397 31.93 123.397 34.5189C123.397 37.1078 121.191 38.7338 118.948 38.7338H116.12V43.8747H114.097V30.3051H118.948ZM100.169 30.304V43.8747H98.1411V30.304H100.169ZM92.4949 36.7398C91.0964 36.7398 89.9257 37.9295 89.9257 39.5555C89.9257 41.1642 91.0964 42.3354 92.4949 42.3354C93.8761 42.3354 94.9589 41.1642 94.9589 39.5555C94.9589 37.9295 93.8761 36.7398 92.4949 36.7398ZM72.3122 36.7398C70.9137 36.7398 69.7072 37.8763 69.7072 39.5382C69.7072 41.1816 70.9137 42.3354 72.3122 42.3354C73.7097 42.3354 74.9162 41.1816 74.9162 39.5382C74.9162 37.8763 73.7097 36.7398 72.3122 36.7398ZM82.4166 36.7398C81.018 36.7398 79.8116 37.8763 79.8116 39.5382C79.8116 41.1816 81.018 42.3354 82.4166 42.3354C83.8151 42.3354 85.0205 41.1816 85.0205 39.5382C85.0205 37.8763 83.8151 36.7398 82.4166 36.7398ZM131.825 39.7325C130.831 39.7325 129.679 40.1341 129.679 41.1816C129.679 42.0022 130.603 42.3333 131.267 42.3333C132.436 42.3333 133.518 41.4432 133.675 40.1862C133.134 39.9246 132.716 39.7325 131.825 39.7325ZM105.569 36.7051C104.538 36.7051 103.105 37.6147 103.157 39.3981L107.282 37.6842C107.055 37.1067 106.374 36.7051 105.569 36.7051ZM119 32.1938H116.12V36.8451H119C120.513 36.8451 121.373 35.5707 121.373 34.5189C121.373 33.4475 120.513 32.1938 119 32.1938ZM38.5567 27.5411L35.2905 30.8515L38.5381 34.143L44.2701 30.8511L38.5567 27.5411ZM22.5145 18.9378L28.5013 24.5293L34.5407 30.1465L35.9025 28.7664L37.6517 26.9878L32.2367 23.877L22.5145 18.9378Z" fill="#93A1C8"/>
<path d="M59.5989 23.8339C58.9976 24.2913 58.2585 24.5262 57.5194 24.5262C55.728 24.5262 54.4879 23.29 54.4879 21.485C54.4879 19.606 55.7155 18.4439 57.344 18.4439C58.2209 18.4439 58.7972 18.6788 59.3233 19.0249L60.0123 17.8999C59.436 17.3807 58.484 17.0222 57.344 17.0222C54.4503 17.0222 52.8594 19.0002 52.8594 21.485C52.8594 24.1801 54.7008 25.9479 57.3816 25.9479C58.5216 25.9479 59.6365 25.5523 60.1876 24.9712L59.5989 23.8339Z" fill="#93A1C8"/>
<path d="M61.7194 25.8119H63.2602V21.3491L66.8429 25.8119H68.7971L64.9638 21.1884L68.5716 17.1582H66.7176L63.2602 21.2625V17.1582H61.7194V25.8119Z" fill="#93A1C8"/>
<path d="M68.9351 25.8119H70.4884L71.4029 23.599H75.1484L76.0629 25.8119H77.7039L73.996 17.1335H72.6431L68.9351 25.8119ZM73.2819 19.0991L74.5597 22.1773H71.9916L73.2819 19.0991Z" fill="#93A1C8"/>
<path d="M84.0862 17.1582H82.5454V20.8793C82.107 21.176 81.5433 21.4356 80.8668 21.4356C80.0024 21.4356 79.326 21.04 79.326 19.6554V17.1582H77.7852V20.0881C77.7852 22.1526 79.1256 22.8573 80.4534 22.8573C81.3929 22.8573 82.132 22.5606 82.5454 22.2639V25.8119H84.0862V17.1582Z" fill="#93A1C8"/>
<path d="M85.3889 25.8119H86.9423L87.8567 23.599H91.6023L92.5168 25.8119H94.1578L90.4498 17.1335H89.0969L85.3889 25.8119ZM89.7358 19.0991L91.0135 22.1773H88.4455L89.7358 19.0991Z" fill="#93A1C8"/>
<path d="M93.6106 18.5799H96.4542V25.8119H97.9951V18.5799H100.839V17.1582H93.6106V18.5799Z" fill="#93A1C8"/>
<path d="M104.593 21.485C105.67 21.485 106.397 21.9177 106.397 22.8944C106.397 23.9575 105.695 24.4149 104.568 24.4149C104.267 24.4149 103.991 24.3902 103.716 24.3779V21.5469C104.067 21.5098 104.367 21.485 104.593 21.485ZM103.716 17.1582H102.175V25.8119C102.689 25.8119 103.553 25.8366 104.392 25.8366C106.722 25.8366 108.025 24.6869 108.025 22.8573C108.025 21.1636 106.985 20.0634 104.718 20.0634C104.48 20.0634 104.104 20.0757 103.716 20.1252V17.1582Z" fill="#93A1C8"/>
<path d="M112.463 25.7995C112.977 25.8366 114.104 25.8613 114.906 25.8613C116.76 25.8613 118.163 25.0454 118.163 23.2652C118.163 22.1155 117.487 21.4603 116.622 21.2502V21.2254C117.374 20.8793 117.875 20.2488 117.875 19.2598C117.875 18.0607 117.086 17.1211 114.994 17.1211C114.117 17.1211 112.952 17.1582 112.463 17.1829V25.7995ZM115.094 22.0908C116.059 22.0908 116.622 22.4617 116.622 23.1911C116.622 24.007 116.059 24.4397 115.019 24.4397C114.58 24.4397 114.217 24.4026 114.004 24.3779V22.0908H115.094ZM114.969 18.5428C115.795 18.5428 116.347 18.9137 116.347 19.6183C116.347 20.4095 115.758 20.768 115.044 20.768H114.004V18.5799C114.28 18.5552 114.618 18.5428 114.969 18.5428Z" fill="#93A1C8"/>
<rect x="0.5" y="0.799072" width="163" height="63" rx="4.5" stroke="#E3E8F2"/>
</svg>
