<svg width="164" height="65" viewBox="0 0 164 65" fill="none" xmlns="http://www.w3.org/2000/svg">
<path fill-rule="evenodd" clip-rule="evenodd" d="M71.763 32.8352C74.5822 32.8352 76.4405 35.0637 76.4405 38.506C76.4405 41.9578 74.593 44.1755 71.805 44.1755C70.3638 44.2509 69.0064 43.4961 68.31 42.2321H68.2573V47.7339H65.9772V32.9514H68.1842V34.799H68.2262C68.9535 33.5429 70.3124 32.7884 71.763 32.8352ZM83.9887 32.8352C86.8079 32.8352 88.6662 35.0637 88.6662 38.506C88.6662 41.9578 86.8187 44.1755 84.0307 44.1755C82.5895 44.2509 81.2321 43.4961 80.5357 42.2321H80.483V47.7339H78.2029V32.9514H80.4099V34.799H80.4518C81.1791 33.5429 82.538 32.7884 83.9887 32.8352ZM100.358 28.5698C103.577 28.5698 105.784 30.3754 105.858 33.0041H103.557C103.419 31.4837 102.162 30.5659 100.325 30.5659C98.4884 30.5659 97.2316 31.4945 97.2316 32.846C97.2316 33.9231 98.0344 34.5569 99.9981 35.0421L101.677 35.4542C104.803 36.1935 106.101 37.4491 106.101 39.6776C106.101 42.528 103.831 44.3132 100.22 44.3132C96.841 44.3132 94.5598 42.5699 94.4124 39.8142L96.7464 39.8143C96.9153 41.3252 98.383 42.3172 100.389 42.3172C102.31 42.3172 103.693 41.3251 103.693 39.9628C103.693 38.7803 102.859 38.0722 100.885 37.5869L98.9102 37.1113C96.1126 36.4355 94.8138 35.1272 94.8138 33.0041C94.8138 30.3754 97.1046 28.5698 100.358 28.5698ZM119.626 32.8149C122.846 32.8149 124.895 35.011 124.895 38.506C124.895 42.0105 122.857 44.1971 119.626 44.1971C116.396 44.1971 114.358 42.0105 114.358 38.506C114.358 35.011 116.416 32.8149 119.626 32.8149ZM138.089 32.8149C141.162 32.8149 143.095 34.9259 143.095 38.2939V39.0751H135.249V39.2128C135.176 40.0398 135.462 40.8584 136.033 41.4603C136.605 42.0623 137.408 42.3897 138.238 42.3591C139.344 42.4628 140.387 41.8274 140.803 40.7968L142.968 40.7968C142.661 42.8132 140.697 44.1971 138.185 44.1971C134.953 44.1971 132.948 42.032 132.948 38.5587C132.948 35.0745 134.964 32.8149 138.089 32.8149ZM111.022 30.3227V32.9514H113.134V34.757H111.022V40.8806C111.022 41.832 111.445 42.2753 112.374 42.2753C112.624 42.2709 112.875 42.2533 113.124 42.2225V44.0173C112.706 44.0953 112.282 44.1306 111.857 44.1227C109.608 44.1227 108.731 43.2781 108.731 41.1238V34.757H107.116V32.9514H108.731V30.3227H111.022ZM59.0605 28.8239L64.5611 44.0593H62.0594L60.666 39.9413H54.8587L53.464 44.0593H51.0043L56.5049 28.8239H59.0605ZM131.674 32.8352C131.937 32.8343 132.199 32.8628 132.455 32.9203V35.0529C132.124 34.9516 131.778 34.905 131.431 34.9152C130.761 34.888 130.112 35.1551 129.655 35.6464C129.198 36.1378 128.979 36.8042 129.055 37.4708V44.0593H126.775V32.9514H128.95V34.8421H129.002C129.306 33.625 130.421 32.7873 131.674 32.8352ZM37.1491 23.8094C39.1073 23.8707 40.9221 24.8517 42.0458 26.4566C40.2726 27.5468 39.1814 29.4693 39.1546 31.5507C39.1571 33.9055 40.5673 36.0307 42.7361 36.948C42.319 38.303 41.6903 39.5835 40.8732 40.7421L40.6452 41.0807C39.614 42.5973 38.4995 43.9892 36.7993 44.0168C35.025 44.0578 34.4287 42.9726 32.3936 42.9726C30.3394 42.9726 29.7039 43.9872 28.0021 44.0578C26.263 44.1222 24.934 42.3059 23.7968 40.6798C21.5239 37.3591 19.754 31.3216 22.1268 27.2135C23.241 25.2112 25.3243 23.9407 27.6145 23.8667C29.3551 23.8309 30.9715 25.0422 32.0417 25.0422C33.0916 25.0422 35.0889 23.5931 37.1491 23.8094ZM119.626 34.6935C117.778 34.6935 116.681 36.1193 116.681 38.506C116.681 40.913 117.778 42.3172 119.626 42.3172C121.473 42.3172 122.572 40.913 122.572 38.506C122.572 36.1085 121.473 34.6935 119.626 34.6935ZM71.1616 34.7786C69.4195 34.7786 68.2477 36.2882 68.2477 38.506C68.2477 40.7441 69.4195 42.2429 71.1616 42.2429C72.9348 42.2429 74.097 40.7752 74.097 38.506C74.097 36.2571 72.9348 34.7786 71.1616 34.7786ZM83.3873 34.7786C81.6452 34.7786 80.4734 36.2882 80.4734 38.506C80.4734 40.7441 81.6452 42.2429 83.3873 42.2429C85.1605 42.2429 86.3227 40.7752 86.3227 38.506C86.3227 36.2571 85.1605 34.7786 83.3873 34.7786ZM57.7941 31.3579H57.7306L55.4601 38.0411H60.0634L57.7941 31.3579ZM138.089 34.6624C137.339 34.6579 136.618 34.9532 136.087 35.4826C135.556 36.012 135.258 36.7316 135.26 37.4816H140.814C140.855 36.7385 140.584 36.0118 140.067 35.4767C139.55 34.9415 138.833 34.6464 138.089 34.6624ZM78.8876 19.2921L80.2727 23.6803H80.3589L81.7392 19.2921H82.8954L80.8358 25.0449C80.3637 26.3892 79.8414 26.8206 78.7151 26.8206C78.624 26.8206 78.3652 26.8104 78.2634 26.7954V25.8567C78.3814 25.8717 78.5003 25.8785 78.6192 25.877C79.1002 25.9127 79.5309 25.5804 79.6184 25.106L79.6999 24.8371L77.7002 19.2921H78.8876ZM74.5181 19.2005C75.9235 19.2005 76.8113 20.2962 76.8113 22.052C76.8113 23.8073 75.9235 24.9078 74.5288 24.9078C73.8299 24.9555 73.1667 24.5935 72.8287 23.9798H72.7424V26.6534H71.6521V19.2921H72.7017V20.2051H72.7832C73.1267 19.5709 73.7969 19.1828 74.5181 19.2005ZM56.1304 17.3182C57.5717 17.3182 58.5866 18.1252 58.5866 19.2867C58.5936 20.0886 58.0393 20.7864 57.2566 20.9611V21.0474C58.194 21.089 58.9217 21.8801 58.8849 22.8176C58.8176 23.4717 58.4897 24.0711 57.9753 24.4805C57.4609 24.89 56.8033 25.0751 56.1508 24.994C55.4968 25.0832 54.8347 24.9029 54.3162 24.4944C53.7978 24.086 53.4675 23.4845 53.4011 22.8278H54.4926C54.5585 23.5281 55.2019 23.9799 56.1508 23.9799C57.0997 23.9799 57.7191 23.4725 57.7191 22.7572C57.7191 22.0317 57.1356 21.5848 56.116 21.5848H55.106V20.5909H56.0849C56.4255 20.6333 56.7684 20.5314 57.0306 20.3097C57.2927 20.0881 57.4503 19.7669 57.4651 19.4239C57.4651 18.7488 56.9571 18.3127 56.0956 18.3127C55.7469 18.2639 55.3932 18.3582 55.115 18.5742C54.8368 18.7901 54.6577 19.1093 54.6184 19.4593H53.5436C53.581 18.8236 53.8808 18.2321 54.3713 17.8261C54.8618 17.4201 55.4989 17.2362 56.1304 17.3182ZM104.081 19.1855C105.618 19.1855 106.547 20.2357 106.547 21.9705V22.351H102.646V22.4121C102.611 22.8221 102.751 23.2278 103.031 23.5293C103.311 23.8307 103.706 23.9997 104.117 23.9947C104.65 24.0585 105.169 23.7939 105.43 23.325L106.481 23.325C106.174 24.367 105.166 25.0401 104.086 24.9233C103.349 24.9428 102.641 24.6374 102.15 24.0883C101.659 23.5392 101.433 22.8018 101.534 22.0718C101.436 21.3397 101.66 20.6012 102.149 20.0474C102.638 19.4937 103.343 19.1792 104.081 19.1855ZM86.0177 19.1855C87.3308 19.1855 88.0821 19.7792 88.0821 20.7125C88.0947 21.2482 87.7311 21.7197 87.2098 21.8436V21.9299C87.8331 22.0102 88.2976 22.5445 88.2905 23.1729C88.2905 24.2231 87.3967 24.918 86.0321 24.918C84.8255 24.918 83.8455 24.365 83.7448 23.2489H84.8303C84.937 23.736 85.3935 23.99 86.0321 23.99C86.7581 23.99 87.2038 23.6701 87.2038 23.1729C87.2038 22.6403 86.8037 22.3863 86.0321 22.3863H85.2054V21.5392H86.0177C86.6767 21.5392 87.0121 21.2858 87.0121 20.824C87.0121 20.4184 86.6874 20.1087 86.0177 20.1087C85.4078 20.1087 84.9621 20.3675 84.8914 20.8036H83.8407C84.0041 19.7611 84.9723 19.0415 86.0177 19.1855ZM62.5967 19.1855C63.9817 19.1855 64.7629 19.875 64.7629 21.042V24.8167H63.7121V24.0403H63.6259C63.2694 24.6073 62.6355 24.9387 61.9665 24.9077C61.4975 24.9565 61.0297 24.8046 60.6789 24.4896C60.328 24.1746 60.1268 23.7259 60.125 23.2543C60.125 22.2599 60.8666 21.6866 62.1797 21.6051L63.6762 21.5189V21.042C63.6762 20.4585 63.2916 20.129 62.5452 20.129C61.9365 20.129 61.516 20.3525 61.3938 20.7431H60.3382C60.4496 19.7942 61.3435 19.1855 62.5967 19.1855ZM70.2036 19.2921V20.2098L67.6564 20.2099V24.8167H66.5661V19.2921H70.2036ZM90.9414 19.2921V23.092H91.0277L93.5737 19.2921H94.6544V24.8167H93.5737V20.9965H93.4922L90.9414 24.8167H89.8607V19.2921H90.9414ZM113.594 19.2921C114.675 19.2921 115.309 19.8397 115.309 20.6969C115.312 21.2575 114.923 21.7441 114.376 21.8639V21.9501C115.046 21.9925 115.565 22.5524 115.557 23.2238C115.557 24.1876 114.832 24.8167 113.62 24.8167H111.103V19.2921H113.594ZM100.608 19.2922V20.2099H98.8682V24.8167H97.7767V20.2099H96.0369V19.2922H100.608ZM63.6762 22.3204L62.3271 22.4067C61.5662 22.4576 61.2212 22.7164 61.2212 23.2034C61.2212 23.7006 61.6525 23.99 62.2456 23.99C62.5968 24.0255 62.9473 23.9171 63.2169 23.6894C63.4866 23.4617 63.6524 23.1344 63.6762 22.7823V22.3204ZM113.34 22.3611H112.184V23.9798H113.477C114.122 23.9798 114.467 23.6953 114.467 23.1729C114.467 22.6199 114.076 22.3611 113.34 22.3611ZM74.2137 20.1799C73.296 20.1799 72.7221 20.9 72.7221 22.0568C72.7221 23.2082 73.296 23.9289 74.2089 23.9289C75.1375 23.9289 75.6898 23.2238 75.6898 22.052C75.6898 20.885 75.1375 20.1799 74.2137 20.1799ZM37.1706 17.3429C37.2893 18.894 36.7988 20.4302 35.8032 21.6255C34.8372 22.8269 33.3736 23.519 31.832 23.5031C31.734 21.9967 32.2388 20.5131 33.2352 19.3791C34.2443 18.2297 35.6494 17.5027 37.1706 17.3429ZM113.386 20.129H112.184V21.5596H113.265C113.924 21.5596 114.239 21.3062 114.239 20.8389C114.239 20.4082 113.965 20.129 113.386 20.129ZM104.076 20.1135C103.695 20.1083 103.328 20.2574 103.059 20.5269C102.79 20.7965 102.641 21.1635 102.646 21.5446H105.435C105.463 21.1699 105.331 20.8008 105.073 20.5283C104.814 20.2557 104.452 20.1051 104.076 20.1135Z" fill="#93A1C8"/>
<rect x="0.5" y="0.799072" width="163" height="63" rx="4.5" stroke="#E3E8F2"/>
</svg>
