<svg width="498" height="29" viewBox="0 0 498 29" fill="none" xmlns="http://www.w3.org/2000/svg">
<path d="M12.5341 1.3291C14.5019 1.3291 16.3657 1.80388 18.0257 2.64832C18.2862 2.77651 18.5467 2.91781 18.807 3.07246L17.6538 4.14411L15.9199 2.285L12.9938 4.99171L11.2556 3.02408L5.80543 8.12053L9.30023 12.1141L7.9269 13.3671L11.3687 17.3675L10.0037 18.6164L14.9217 24.2941L17.841 21.5065L20.3649 24.4935C19.8636 24.8982 19.3162 25.2796 18.7139 25.6319C16.8882 26.7112 14.7787 27.3291 12.5341 27.3291C5.63017 27.3291 -0.000488281 21.4893 -0.000488281 14.3291C-0.000488281 7.1687 5.63017 1.3291 12.5341 1.3291Z" fill="#006EB8"/>
<path d="M10.2495 13.5079L13.2303 10.7241L15.9144 13.8156L12.9334 16.5992L10.2495 13.5079Z" fill="#006EB8"/>
<path d="M12.3696 18.85L15.3506 16.0664L18.0341 19.1577L15.0533 21.942L12.3696 18.85Z" fill="#006EB8"/>
<path d="M8.1167 8.22867L11.097 5.44531L13.7807 8.5366L10.8004 11.32L8.1167 8.22867Z" fill="#006EB8"/>
<path d="M13.5864 6.73027L15.8217 4.64258L17.8344 6.96133L15.5991 9.04901L13.5864 6.73027Z" fill="#006EB8"/>
<path d="M17.5591 16.2921L19.7941 14.2046L21.807 16.5236L19.5718 18.6108L17.5591 16.2921Z" fill="#006EB8"/>
<path d="M19.5249 20.9749L21.7606 18.8877L23.7733 21.206L21.5378 23.2932L19.5249 20.9749Z" fill="#006EB8"/>
<path d="M20.4253 10.2421L21.9155 8.8501L23.2578 10.3963L21.7675 11.7879L20.4253 10.2421Z" fill="#006EB8"/>
<path d="M18.521 5.64938L20.011 4.25781L21.3529 5.8038L19.8625 7.19536L18.521 5.64938Z" fill="#006EB8"/>
<path d="M22.3306 14.8344L23.8212 13.4429L25.1629 14.9889L23.6725 16.3802L22.3306 14.8344Z" fill="#006EB8"/>
<path d="M15.647 11.3931L17.8818 9.30566L19.8947 11.6244L17.6597 13.7121L15.647 11.3931Z" fill="#006EB8"/>
<path d="M59.5964 9.33568L59.5266 9.38406L59.4569 9.33568C58.9431 8.85095 58.3815 8.65696 57.6811 8.65696C56.0689 8.65696 55.0171 9.82041 55.0171 11.6379C55.0171 11.6379 55.0171 19.9496 55.0171 20.1433C55.181 20.1433 56.4658 20.1433 56.6293 20.1433C56.6293 19.9498 56.6293 11.6377 56.6293 11.6377C56.6293 10.4259 57.4241 10.3289 57.6811 10.3289C57.868 10.3289 58.1487 10.3773 58.3818 10.5712C58.6157 10.8136 58.7321 11.153 58.7321 11.6377C58.7321 11.6377 58.7321 19.9493 58.7321 20.1433C58.896 20.1433 60.1808 20.1433 60.3445 20.1433C60.3445 19.9498 60.3445 11.6377 60.3445 11.6377C60.3445 10.4259 61.1393 10.3289 61.3955 10.3289C61.5827 10.3289 61.8633 10.3773 62.0967 10.5712C62.3302 10.8136 62.447 11.153 62.447 11.6377C62.447 11.6377 62.447 19.9493 62.447 20.1433C62.6105 20.1433 63.8956 20.1433 64.0588 20.1433C64.0588 19.9498 64.0588 11.6377 64.0588 11.6377C64.0588 10.6927 63.7794 9.91695 63.2649 9.38383C62.7976 8.92352 62.1432 8.65674 61.3955 8.65674C60.6715 8.65696 60.0877 8.87536 59.5964 9.33568Z" fill="#006EB8"/>
<path fill-rule="evenodd" clip-rule="evenodd" d="M68.709 11.4927C69.9238 11.4927 70.8123 12.0014 71.3495 12.5831C72.1905 13.5284 72.354 14.8611 72.3537 15.9027C72.3537 16.921 72.1903 18.254 71.3495 19.1991C70.8123 19.7801 69.9238 20.289 68.709 20.289C67.5408 20.289 66.6529 19.7801 66.1158 19.1991C65.2748 18.254 65.1108 16.921 65.1108 15.9027C65.1108 14.8611 65.2748 13.5284 66.1158 12.5831C66.6525 12.0014 67.5408 11.4927 68.709 11.4927ZM70.1338 18.6177C70.7185 17.9632 70.7185 17.0663 70.7185 16.2669V15.5158C70.7185 14.7161 70.7185 13.8195 70.1338 13.1896C69.8999 12.923 69.4567 12.6074 68.7086 12.6074C68.0073 12.6074 67.5637 12.923 67.3303 13.1896C66.7456 13.8195 66.7456 14.7161 66.7456 15.5158V16.2669C66.7456 17.0663 66.7456 17.963 67.3303 18.6177C67.5637 18.8596 68.0073 19.175 68.7086 19.175C69.4567 19.175 69.8999 18.8596 70.1338 18.6177Z" fill="#006EB8"/>
<path d="M73.6851 11.6383L75.0407 11.6625V12.4135C75.4377 12.1228 75.7887 11.9046 76.186 11.7592C76.6767 11.5411 77.0268 11.4927 77.5173 11.4927C78.2186 11.4927 78.9425 11.638 79.5269 12.3168C80.0874 12.995 80.2042 13.7951 80.2042 14.4734V20.1197H78.7086V14.352C78.7086 12.9713 77.8685 12.6073 77.1672 12.6073C76.4657 12.6073 75.742 12.9229 75.158 13.4798V20.1197H73.6851V12.8741V11.6383H73.6851Z" fill="#006EB8"/>
<path fill-rule="evenodd" clip-rule="evenodd" d="M86.5605 18.8595C86.9339 18.7386 87.2375 18.6176 87.5183 18.472L87.9846 19.465C87.7278 19.6113 87.3302 19.8046 86.9799 19.9502C86.3261 20.2167 85.6719 20.2895 85.0644 20.2895C83.7087 20.2895 82.7509 19.7325 82.2135 19.0784C81.3728 18.1089 81.2319 16.7031 81.2319 15.7578C81.2319 14.9096 81.3259 13.6014 82.1671 12.6075C82.6811 12.0019 83.5217 11.4932 84.6666 11.4932C85.695 11.4932 86.5132 11.9049 87.0503 12.5106C87.8682 13.407 87.915 14.5223 87.915 15.8795V16.267H82.8684V16.4852C82.8684 17.5032 83.172 18.0845 83.4524 18.375C83.8264 18.8114 84.5277 19.0777 85.2981 19.0777C85.7657 19.0777 86.1162 19.0056 86.5605 18.8595ZM83.4066 13.1647C83.1723 13.4315 82.8687 13.9888 82.8687 14.9587L82.8691 15.1518H86.3273V14.7889C86.3273 14.2068 86.3273 13.5529 85.7899 13.0198C85.4852 12.7044 85.0655 12.6074 84.6446 12.6074C84.0133 12.6074 83.6392 12.8986 83.4066 13.1647Z" fill="#006EB8"/>
<path d="M95.9994 11.6626L92.7985 21.6468C92.6816 22.0834 92.378 22.8103 92.0272 23.2215C91.6065 23.7067 91.046 23.9247 90.415 23.9247C89.9707 23.9247 89.5506 23.8274 89.1297 23.5855C88.8729 23.4153 88.6157 23.2462 88.4518 23.0522L89.1532 22.1311C89.2701 22.253 89.4334 22.3744 89.5744 22.4702C89.8076 22.6163 90.0882 22.6891 90.3448 22.6891C90.789 22.6891 91.0694 22.4472 91.2098 22.253C91.373 22.0348 91.5365 21.5261 91.6538 21.2109L91.8406 20.5322L88.4058 11.663H90.0176L92.0739 16.97C92.2847 17.4782 92.4948 18.2548 92.5417 18.4726H92.6112C92.8684 17.4545 92.9859 17.1147 93.1961 16.4853L94.6677 11.6628L95.9994 11.6626Z" fill="#006EB8"/>
<path d="M33.1234 19.635L33.1703 19.5624L33.2405 19.635C33.7776 20.0955 34.3152 20.3137 35.0395 20.3137C36.6514 20.3137 37.7034 19.1254 37.7034 17.3325C37.7034 17.3325 37.7034 8.99623 37.7034 8.82666C37.5397 8.82666 36.2311 8.82666 36.0676 8.82666C36.0676 8.99623 36.0676 17.3325 36.0676 17.3325C36.0676 18.5439 35.273 18.6176 35.0395 18.6176C34.8292 18.6176 34.5489 18.5929 34.3383 18.3748C34.1046 18.157 33.988 17.7935 33.988 17.3332C33.988 17.3332 33.988 8.99668 33.988 8.82711C33.8245 8.82711 32.5159 8.82711 32.3522 8.82711C32.3522 8.99668 32.3522 17.3332 32.3522 17.3332C32.3522 18.5443 31.558 18.6178 31.301 18.6178C31.114 18.6178 30.8334 18.5934 30.6233 18.3752C30.3894 18.1575 30.2728 17.7939 30.2728 17.3334C30.2728 17.3334 30.2728 8.99713 30.2728 8.82756C30.1091 8.82756 28.8009 8.82756 28.6372 8.82756C28.6372 8.99713 28.6372 17.3334 28.6372 17.3334C28.6372 18.2547 28.9175 19.03 29.4318 19.5629C29.8989 20.0478 30.5767 20.3139 31.301 20.3139C32.0254 20.3137 32.6094 20.0715 33.1234 19.635Z" fill="#006EB8"/>
<path fill-rule="evenodd" clip-rule="evenodd" d="M45.167 18.4894C45.1791 18.4837 45.1911 18.4781 45.203 18.4725L45.6704 19.4419C45.6538 19.4513 45.6367 19.461 45.6192 19.471C45.365 19.6152 45.0163 19.8131 44.6887 19.9267C44.0112 20.193 43.3806 20.29 42.7731 20.29C41.4178 20.29 40.4833 19.7089 39.9226 19.0788C39.0814 18.1094 38.9644 16.7036 38.9644 15.7583C38.9644 14.9347 39.0341 13.6261 39.8989 12.608C40.4129 12.0265 41.2541 11.5176 42.3521 11.5176C43.4035 11.5176 44.2216 11.9295 44.7587 12.511C45.5531 13.4074 45.5999 14.5227 45.5999 15.8799V16.2674H40.5997V16.4856C40.5997 17.5037 40.9034 18.085 41.1602 18.3755C41.5344 18.8118 42.2357 19.0782 43.007 19.0782C43.4737 19.0782 43.8249 19.006 44.2685 18.86C44.6252 18.7446 44.9181 18.6066 45.167 18.4894ZM41.1379 13.1647C40.8804 13.4562 40.6001 13.9888 40.6001 14.9587V15.1518H44.0347V14.8127C44.0347 14.207 44.0347 13.5527 43.4978 13.0438C43.1935 12.7288 42.7734 12.6074 42.3525 12.6074C41.7217 12.6074 41.348 12.9228 41.1379 13.1647Z" fill="#006EB8"/>
<path fill-rule="evenodd" clip-rule="evenodd" d="M50.2972 11.5168C51.1378 11.5168 51.9557 11.8318 52.5401 12.3651C53.6619 13.359 53.7319 14.9334 53.7319 15.8545C53.7319 16.8238 53.5915 18.0107 52.9138 18.9562C52.0732 20.0961 50.9041 20.2892 50.04 20.2892C48.872 20.2892 47.8435 19.9254 46.979 19.3923V8.60889H48.4515V11.929C48.5048 11.9088 48.5602 11.8876 48.6165 11.866C48.8314 11.7835 49.0609 11.6955 49.2457 11.6382C49.2594 11.6358 49.2734 11.6334 49.2877 11.6309C49.5652 11.5825 49.9413 11.5168 50.2972 11.5168ZM51.5825 13.2133C51.2088 12.8009 50.6011 12.6069 50.0164 12.6069L48.4517 13.1156V18.6649C48.6614 18.7868 48.9189 18.9319 49.1286 19.0052L49.1408 19.0083C49.4199 19.0801 49.7871 19.1745 50.0868 19.1745C50.9285 19.1745 51.4188 18.7875 51.6524 18.4719C51.8628 18.1567 52.0963 17.5752 52.0963 16.1452V15.4183C52.0963 14.667 52.0963 13.7948 51.5825 13.2133Z" fill="#006EB8"/>
<path fill-rule="evenodd" clip-rule="evenodd" d="M141.336 7.60205H140.54C139.337 7.60205 138.173 8.40484 138.173 10.735C138.173 12.9866 139.24 13.7112 140.54 13.7112H141.336V7.60205ZM140.093 14.9642L137.726 20.3291H136L138.599 14.592C137.377 13.9654 136.562 12.8298 136.562 10.7348C136.562 7.79767 138.405 6.3291 140.598 6.3291H142.829V20.3291H141.335V14.9642H140.093Z" fill="#FF0000"/>
<path fill-rule="evenodd" clip-rule="evenodd" d="M169.026 14.9996C169.026 12.1502 170.128 10.3291 172.26 10.3291C173.073 10.3291 173.543 10.5455 173.94 10.7977L173.741 12.1325C173.362 11.8076 172.82 11.5013 172.242 11.5013C171.23 11.5013 170.508 12.6372 170.508 14.9274C170.508 17.1994 171.049 18.4981 172.188 18.4981C172.874 18.4981 173.398 18.2275 173.723 17.9391L174.049 18.9848C173.561 19.3994 172.983 19.67 172.152 19.67C170.2 19.67 169.026 18.1013 169.026 14.9996ZM164.907 15.0178V19.5442H163.498V10.4556H164.907V14.6573L167.093 10.4556H168.52L166.262 14.7295L168.845 19.5442H167.31L164.907 15.0178ZM158.276 14.1703H160.607C160.607 12.6195 160.354 11.4834 159.541 11.4834C158.673 11.4834 158.366 12.5473 158.276 14.1703ZM159.83 19.67C157.951 19.67 156.794 18.1735 156.794 15.3786C156.794 12.4569 157.608 10.3291 159.541 10.3291C161.058 10.3291 162.052 11.465 162.052 14.5484V15.3242H158.258C158.258 17.38 158.836 18.462 159.956 18.462C160.751 18.462 161.383 18.1013 161.745 17.849L162.07 18.9303C161.492 19.3815 160.733 19.67 159.83 19.67ZM153.832 11.5913H152.26V11.7539C152.26 13.6652 152.169 16.46 151.411 18.3897H153.832V11.5913ZM155.945 21.3295H154.68V19.5442H150.778V21.3295H149.513V18.3901H150.073C150.904 16.4604 150.994 13.6475 150.994 11.231V10.4556H155.222V18.3901H155.945V21.3295ZM148.7 10.4554V19.544H147.309V15.4688H145.213V19.544H143.804V10.4554H145.213V14.3142H147.309V10.4554H148.7Z" fill="#333333"/>
<path fill-rule="evenodd" clip-rule="evenodd" d="M183.814 7.11572H180.775C180.715 10.588 180.617 13.2356 180.461 15.2117C180.284 17.2642 179.97 18.6263 179.441 19.2599H183.814V7.11572ZM184.853 20.0461H178.853L178.715 22.3291H177.951V19.2598H178.362C179.049 18.703 179.382 17.1685 179.578 15.2117C179.774 13.1782 179.833 10.1467 179.892 6.3291H184.794V19.2598H185.756V22.3291H184.99L184.853 20.0461Z" fill="#333333"/>
<path fill-rule="evenodd" clip-rule="evenodd" d="M187.56 14.7756H190.787C190.927 12.2186 190.222 11.0737 189.323 11.0737C188.389 11.0737 187.631 12.3712 187.56 14.7756ZM189.499 19.547C190.68 19.547 191.297 18.5167 191.297 18.5167L191.562 19.2412C191.562 19.2412 190.892 20.3291 189.482 20.3291C187.596 20.3291 186.732 18.4779 186.732 15.3294C186.732 12.1803 187.825 10.3291 189.323 10.3291C190.857 10.3291 191.844 12.0661 191.562 15.4824H187.543C187.578 18.1158 188.213 19.547 189.499 19.547Z" fill="#333333"/>
<path fill-rule="evenodd" clip-rule="evenodd" d="M196.601 15.5078H193.446V20.3291H192.584V10.3291H193.446V14.7534H196.601V10.3291H197.463V20.3291H196.601V15.5078Z" fill="#333333"/>
<path fill-rule="evenodd" clip-rule="evenodd" d="M200.361 14.7734V19.5947H200.966C202.397 19.5947 203.365 18.9007 203.365 17.1743C203.365 15.4881 202.518 14.7734 201.066 14.7734H200.361ZM199.415 10.3291H200.361V14.0396H201.108C203.043 14.0396 204.293 15.0713 204.293 17.1548C204.293 19.2775 202.962 20.3291 201.047 20.3291H199.415V10.3291Z" fill="#333333"/>
<path fill-rule="evenodd" clip-rule="evenodd" d="M206.111 11.1032V20.3291H205.268V10.3291H209.171V11.1032H206.111Z" fill="#333333"/>
<path fill-rule="evenodd" clip-rule="evenodd" d="M215.202 13.3649C215.202 12.849 215.237 12.4124 215.273 11.9958H215.219C215.095 12.4323 214.935 12.849 214.74 13.2855L211.831 20.3291H211.122V10.3291H211.902V17.2734C211.902 17.8091 211.866 18.2456 211.831 18.6821H211.884C212.008 18.2261 212.185 17.7896 212.363 17.353L215.273 10.3291H216V20.3291H215.202V13.3649Z" fill="#333333"/>
<path d="M288.209 28.3291L288.919 28.31L289.62 28.2582L290.308 28.1686L290.99 28.0458L291.654 27.89L292.309 27.701L292.95 27.479L293.577 27.2288L294.19 26.9455L294.784 26.6386L295.36 26.2984L295.922 25.9347L296.46 25.5429L296.98 25.1272L297.482 24.6879L297.96 24.2206L298.42 23.7341L298.852 23.224L299.261 22.6951L299.646 22.1473L300.003 21.576L300.338 20.9901L300.64 20.3857L300.918 19.7623L301.164 19.125L301.383 18.4729L301.569 17.8073L301.722 17.1318L301.842 16.4376L301.931 15.7387L301.982 15.0257L302 14.3032L301.982 13.5852L301.931 12.877L301.842 12.178L301.722 11.4932L301.569 10.818L301.383 10.1567L301.164 9.50493L300.918 8.87209L300.64 8.25355L300.338 7.64902L300.003 7.06818L299.646 6.49673L299.261 5.94883L298.852 5.42461L298.42 4.91456L297.96 4.42819L297.482 3.96537L296.98 3.52624L296.46 3.1108L295.922 2.71861L295.36 2.35503L294.784 2.01976L294.19 1.7128L293.577 1.42938L292.95 1.1792L292.309 0.957175L291.654 0.768231L290.99 0.612368L290.308 0.489584L289.62 0.399881L288.919 0.348026L288.209 0.329102L287.503 0.348026L286.802 0.399881L286.114 0.489584L285.436 0.612368L284.772 0.768231L284.118 0.957175L283.481 1.1792L282.855 1.42938L282.246 1.7128L281.656 2.01976L281.081 2.35503L280.523 2.71861L279.985 3.1108L279.465 3.52624L278.968 3.96537L278.49 4.42819L278.035 4.91456L277.603 5.42461L277.194 5.94883L276.813 6.49673L276.455 7.06818L276.126 7.64902L275.82 8.25355L275.545 8.87209L275.299 9.50493L275.086 10.1567L274.9 10.818L274.747 11.4932L274.626 12.178L274.538 12.877L274.487 13.5852L274.468 14.3032L274.487 15.0257L274.538 15.7387L274.626 16.4376L274.747 17.1318L274.9 17.8073L275.086 18.4729L275.299 19.125L275.545 19.7623L275.82 20.3857L276.126 20.9901L276.455 21.576L276.813 22.1473L277.194 22.6951L277.603 23.224L278.035 23.7341L278.49 24.2206L278.968 24.6879L279.465 25.1272L279.985 25.5429L280.523 25.9347L281.081 26.2984L281.656 26.6386L282.246 26.9455L282.855 27.2288L283.481 27.479L284.118 27.701L284.772 27.89L285.436 28.0458L286.114 28.1686L286.802 28.2582L287.503 28.31L288.209 28.3291Z" fill="#F7A826"/>
<path d="M269.791 28.3291L270.497 28.31L271.198 28.2582L271.886 28.1686L272.564 28.0458L273.228 27.89L273.882 27.701L274.518 27.479L275.145 27.2288L275.754 26.9455L276.343 26.6386L276.919 26.2984L277.477 25.9347L278.015 25.5429L278.535 25.1272L279.032 24.6879L279.511 24.2206L279.966 23.7341L280.397 23.224L280.806 22.6951L281.187 22.1473L281.544 21.576L281.874 20.9901L282.181 20.3857L282.455 19.7623L282.701 19.125L282.914 18.4729L283.1 17.8073L283.253 17.1318L283.374 16.4376L283.462 15.7387L283.513 15.0257L283.532 14.3032L283.513 13.5852L283.462 12.877L283.374 12.178L283.253 11.4932L283.1 10.818L282.914 10.1567L282.701 9.50493L282.455 8.87209L282.181 8.25355L281.874 7.64902L281.544 7.06818L281.187 6.49673L280.806 5.94883L280.397 5.42461L279.966 4.91456L279.511 4.42819L279.032 3.96537L278.535 3.52624L278.015 3.1108L277.477 2.71861L276.919 2.35503L276.343 2.01976L275.754 1.7128L275.145 1.42938L274.518 1.1792L273.882 0.957175L273.228 0.768231L272.564 0.612368L271.886 0.489584L271.198 0.399881L270.497 0.348026L269.791 0.329102L269.081 0.348026L268.38 0.399881L267.692 0.489584L267.01 0.612368L266.346 0.768231L265.691 0.957175L265.05 1.1792L264.423 1.42938L263.81 1.7128L263.216 2.01976L262.64 2.35503L262.078 2.71861L261.539 3.1108L261.019 3.52624L260.518 3.96537L260.04 4.42819L259.58 4.91456L259.148 5.42461L258.74 5.94883L258.354 6.49673L257.996 7.06818L257.662 7.64902L257.36 8.25355L257.082 8.87209L256.836 9.50493L256.617 10.1567L256.431 10.818L256.278 11.4932L256.158 12.178L256.069 12.877L256.018 13.5852L256 14.3032L256.018 15.0257L256.069 15.7387L256.158 16.4376L256.278 17.1318L256.431 17.8073L256.617 18.4729L256.836 19.125L257.082 19.7623L257.36 20.3857L257.662 20.9901L257.996 21.576L258.354 22.1473L258.74 22.6951L259.148 23.224L259.58 23.7341L260.04 24.2206L260.518 24.6879L261.019 25.1272L261.539 25.5429L262.078 25.9347L262.64 26.2984L263.216 26.6386L263.81 26.9455L264.423 27.2288L265.05 27.479L265.691 27.701L266.346 27.89L267.01 28.0458L267.692 28.1686L268.38 28.2582L269.081 28.31L269.791 28.3291Z" fill="#ED1C2E"/>
<path d="M277.388 5.69838H284.702V4.93799H278.02L277.388 5.69838Z" fill="#F7A826"/>
<path d="M276.292 7.3893H284.702V6.62891H276.733L276.292 7.3893Z" fill="#F7A826"/>
<path d="M275.475 9.07533H284.702V8.31494H275.8L275.475 9.07533Z" fill="#F7A826"/>
<path d="M274.914 10.7656H284.702V10.0054H275.146L274.914 10.7656Z" fill="#F7A826"/>
<path d="M275.239 18.9362H284.726V18.1758H275.006L275.239 18.9362Z" fill="#F7A826"/>
<path d="M275.939 20.6268H284.725V19.8667H275.591L275.939 20.6268Z" fill="#F7A826"/>
<path d="M276.924 22.3131H284.725V21.5527H276.455L276.924 22.3131Z" fill="#F7A826"/>
<path d="M278.28 24.0033H284.725V23.2383H277.625L278.28 24.0033Z" fill="#F7A826"/>
<path d="M274.583 12.4524H284.702V11.6919H274.727L274.583 12.4524Z" fill="#F7A826"/>
<path d="M280.75 17.2501H284.609V16.4897H280.89L280.75 17.2501Z" fill="#F7A826"/>
<path d="M281.056 15.564H284.609V14.7988H281.196L281.056 15.564Z" fill="#F7A826"/>
<path d="M274.329 14.7988H275.332V15.564H274.375L274.329 14.7988Z" fill="#F7A826"/>
<path d="M272.457 13.8781L272.392 13.8735L272.327 13.864L272.266 13.8544L272.206 13.8452L272.15 13.8358L272.09 13.8263L272.03 13.8167L271.965 13.8073L271.9 13.7978L271.826 13.793L271.742 13.7886L271.654 13.7837H271.556L271.449 13.7886L271.329 13.7978L271.194 13.8073L271.101 13.8215L271.013 13.8358L270.934 13.864L270.864 13.8924L270.799 13.9254L270.739 13.9632L270.692 14.0104L270.65 14.0529L270.623 14.1048L270.6 14.1568L270.59 14.2135V14.2703L270.604 14.3316L270.623 14.3928L270.66 14.4543L270.706 14.5157L270.799 14.6053L270.911 14.6764L271.041 14.7376L271.18 14.7896L271.329 14.8367L271.482 14.8889L271.635 14.9455L271.784 15.007L271.923 15.087L272.053 15.1863L272.169 15.3044L272.266 15.4508L272.341 15.6302L272.387 15.843L272.406 16.0978L272.387 16.3952L272.355 16.6172L272.299 16.8108L272.225 16.9903L272.132 17.146L272.025 17.2831L271.904 17.401L271.774 17.5052L271.63 17.5949L271.482 17.6655L271.329 17.727L271.171 17.7741L271.008 17.812L270.85 17.8403L270.697 17.8546L270.544 17.864L270.4 17.8687H270.2L270.014 17.864H269.852L269.699 17.8592L269.559 17.8546L269.434 17.845L269.323 17.8357L269.216 17.8215L269.118 17.812L269.03 17.7932L268.942 17.779L268.863 17.7553L268.784 17.7366L268.709 17.7083L268.635 17.6799L268.556 17.6513L268.765 16.608L268.807 16.6172L268.858 16.6314L268.923 16.6504L269.002 16.6692L269.086 16.688L269.179 16.7071L269.281 16.7305L269.392 16.7495L269.508 16.7683L269.629 16.7871L269.755 16.8015L269.885 16.8157L270.019 16.8205L270.154 16.8251H270.288L270.423 16.8205L270.558 16.792L270.664 16.7541L270.748 16.7021L270.813 16.6361L270.859 16.5701L270.897 16.4943L270.92 16.4189L270.939 16.3481L270.948 16.2112L270.906 16.0931L270.827 15.9987L270.711 15.9184L270.572 15.8474L270.409 15.7766L270.228 15.7105L270.047 15.6351L269.861 15.55L269.685 15.4508L269.522 15.3278L269.374 15.1815L269.257 15.0021L269.174 14.7896L269.132 14.5345L269.137 14.2323L269.16 14.0481L269.193 13.8735L269.239 13.7129L269.295 13.5618L269.369 13.4201L269.453 13.2973L269.55 13.1793L269.666 13.0754L269.801 12.9857L269.949 12.9102L270.116 12.8391L270.302 12.7872L270.511 12.7448L270.739 12.7117L270.99 12.6928L271.264 12.688H271.435L271.593 12.6928L271.737 12.6975L271.867 12.7023L271.983 12.7117L272.09 12.7212L272.183 12.7306L272.266 12.74L272.346 12.7495L272.411 12.7635L272.471 12.7731L272.527 12.7825L272.573 12.792L272.615 12.7966L272.657 12.8062L272.694 12.8109L272.457 13.8781Z" fill="white"/>
<path d="M272.457 13.8781V13.8781L272.392 13.8735L272.327 13.864L272.266 13.8544L272.206 13.8452L272.15 13.8358L272.09 13.8263L272.03 13.8167L271.965 13.8073L271.9 13.7978L271.826 13.793L271.742 13.7886L271.654 13.7837H271.556L271.449 13.7886L271.329 13.7978L271.194 13.8073V13.8073L271.101 13.8215L271.013 13.8358L270.934 13.864L270.864 13.8924L270.799 13.9254L270.739 13.9632L270.692 14.0104L270.65 14.0529L270.623 14.1048L270.6 14.1568L270.59 14.2135V14.2703L270.604 14.3316L270.623 14.3928L270.66 14.4543L270.706 14.5157V14.5157L270.799 14.6053L270.911 14.6764L271.041 14.7376L271.18 14.7896L271.329 14.8367L271.482 14.8889L271.635 14.9455L271.784 15.007L271.923 15.087L272.053 15.1863L272.169 15.3044L272.266 15.4508L272.341 15.6302L272.387 15.843L272.406 16.0978L272.387 16.3952V16.3952L272.355 16.6172L272.299 16.8108L272.225 16.9903L272.132 17.146L272.025 17.2831L271.904 17.401L271.774 17.5052L271.63 17.5949L271.482 17.6655L271.329 17.727L271.171 17.7741L271.008 17.812L270.85 17.8403L270.697 17.8546L270.544 17.864L270.4 17.8687V17.8687H270.2L270.014 17.864H269.852L269.699 17.8592L269.559 17.8546L269.434 17.845L269.323 17.8357L269.216 17.8215L269.118 17.812L269.03 17.7932L268.942 17.779L268.863 17.7553L268.784 17.7366L268.709 17.7083L268.635 17.6799L268.556 17.6513L268.765 16.608V16.608L268.807 16.6172L268.858 16.6314L268.923 16.6504L269.002 16.6692L269.086 16.688L269.179 16.7071L269.281 16.7305L269.392 16.7495L269.508 16.7683L269.629 16.7871L269.755 16.8015L269.885 16.8157L270.019 16.8205L270.154 16.8251H270.288L270.423 16.8205V16.8205L270.558 16.792L270.664 16.7541L270.748 16.7021L270.813 16.6361L270.859 16.5701L270.897 16.4943L270.92 16.4189L270.939 16.3481V16.3481L270.948 16.2112L270.906 16.0931L270.827 15.9987L270.711 15.9184L270.572 15.8474L270.409 15.7766L270.228 15.7105L270.047 15.6351L269.861 15.55L269.685 15.4508L269.522 15.3278L269.374 15.1815L269.257 15.0021L269.174 14.7896L269.132 14.5345L269.137 14.2323V14.2323L269.16 14.0481L269.193 13.8735L269.239 13.7129L269.295 13.5618L269.369 13.4201L269.453 13.2973L269.55 13.1793L269.666 13.0754L269.801 12.9857L269.949 12.9102L270.116 12.8391L270.302 12.7872L270.511 12.7448L270.739 12.7117L270.99 12.6928L271.264 12.688V12.688H271.435L271.593 12.6928L271.737 12.6975L271.867 12.7023L271.983 12.7117L272.09 12.7212L272.183 12.7306L272.266 12.74L272.346 12.7495L272.411 12.7635L272.471 12.7731L272.527 12.7825L272.573 12.792L272.615 12.7966L272.657 12.8062L272.694 12.8109L272.457 13.8781" stroke="white" stroke-width="0.216"/>
<path d="M273.557 11.6445H274.843L274.653 12.7873H275.428L275.261 13.8545L274.444 13.8311L273.998 16.4662L273.994 16.5605L274.017 16.6408L274.063 16.7022L274.123 16.7542L274.207 16.7871L274.3 16.8157L274.402 16.8345L274.513 16.8438L274.616 16.8391L274.708 16.8297L274.792 16.8157L274.866 16.7968L274.927 16.7779L274.969 16.7637L274.996 16.7542L275.006 16.7496L274.843 17.628L274.811 17.6514L274.778 17.6705L274.746 17.6892L274.713 17.7083L274.681 17.7225L274.644 17.7366L274.602 17.7508L274.56 17.7649L274.513 17.7791L274.467 17.7883L274.412 17.7979L274.356 17.8074L274.295 17.8168L274.226 17.8262L274.151 17.8357L274.072 17.8451H273.719L273.534 17.8309L273.371 17.812L273.223 17.7837L273.097 17.7508L272.99 17.7083L272.902 17.6609L272.823 17.6043L272.763 17.5429L272.717 17.4769L272.684 17.3964L272.661 17.3161L272.647 17.2266L272.642 17.1275V17.0233L272.656 16.915L272.67 16.7968L273.557 11.6445Z" fill="white"/>
<path d="M273.557 11.6445H274.843L274.653 12.7873H275.428L275.261 13.8545L274.444 13.8311L273.998 16.4662V16.4662L273.994 16.5605L274.017 16.6408L274.063 16.7022L274.123 16.7542L274.207 16.7871L274.3 16.8157L274.402 16.8345L274.513 16.8438V16.8438L274.616 16.8391L274.708 16.8297L274.792 16.8157L274.866 16.7968L274.927 16.7779L274.969 16.7637L274.996 16.7542L275.006 16.7496L274.843 17.628V17.628L274.811 17.6514L274.778 17.6705L274.746 17.6892L274.713 17.7083L274.681 17.7225L274.644 17.7366L274.602 17.7508L274.56 17.7649L274.513 17.7791L274.467 17.7883L274.412 17.7979L274.356 17.8074L274.295 17.8168L274.226 17.8262L274.151 17.8357L274.072 17.8451H273.719V17.8451L273.534 17.8309L273.371 17.812L273.223 17.7837L273.097 17.7508L272.99 17.7083L272.902 17.6609L272.823 17.6043L272.763 17.5429L272.717 17.4769L272.684 17.3964L272.661 17.3161L272.647 17.2266L272.642 17.1275V17.0233L272.656 16.915L272.67 16.7968L273.557 11.6445" stroke="white" stroke-width="0.216"/>
<path d="M276.455 15.6351L276.441 15.7151L276.437 15.8002L276.446 15.89L276.464 15.9796L276.497 16.0695L276.534 16.1545L276.585 16.2441L276.641 16.3244L276.706 16.4047L276.776 16.4755L276.85 16.5464L276.933 16.6031L277.017 16.6551L277.11 16.6975L277.203 16.7305L277.296 16.7495L277.416 16.7683L277.532 16.7825L277.653 16.7968L277.774 16.8062L277.894 16.8108H278.02L278.141 16.8062L278.266 16.7968L278.392 16.7778L278.517 16.7541L278.647 16.7258L278.772 16.6834L278.902 16.6314L279.037 16.5747L279.167 16.4992L279.302 16.4189L279.116 17.5806L279.042 17.6184L278.967 17.6561L278.893 17.6846L278.823 17.7129L278.754 17.7366L278.679 17.76L278.605 17.779L278.526 17.7932L278.443 17.8073L278.35 17.8167L278.252 17.8261L278.145 17.8357L278.025 17.8403H277.899L277.755 17.845H277.602L277.375 17.8403L277.142 17.8167L276.91 17.7837L276.678 17.727L276.451 17.6561L276.232 17.5664L276.023 17.4485L275.828 17.3114L275.647 17.151L275.489 16.9574L275.355 16.74L275.243 16.4898L275.164 16.2112L275.113 15.8947L275.099 15.5451L275.122 15.1578L275.141 15.007L275.169 14.8321L275.206 14.6479L275.257 14.4494L275.327 14.2466L275.41 14.0434L275.517 13.8358L275.647 13.6373L275.795 13.4484L275.977 13.269L276.181 13.1083L276.413 12.9668L276.682 12.8488L276.984 12.7635L277.319 12.7069L277.695 12.688L277.876 12.6928L278.067 12.7117L278.257 12.7448L278.447 12.792L278.633 12.8628L278.814 12.9479L278.981 13.0611L279.134 13.1934L279.274 13.3541L279.39 13.5429L279.483 13.7601L279.548 14.0104L279.585 14.2937L279.589 14.6148L279.557 14.9738L279.487 15.3706L279.464 15.6585H276.079L276.293 14.7281H278.326L278.336 14.6102L278.331 14.4968L278.322 14.3928L278.303 14.2986L278.271 14.2088L278.238 14.1285L278.192 14.0575L278.145 13.9915L278.09 13.9349L278.029 13.8875L277.96 13.8452L277.89 13.8073L277.816 13.7789L277.741 13.7601L277.662 13.746L277.579 13.7364L277.491 13.7412L277.407 13.7553L277.328 13.7743L277.249 13.8026L277.17 13.8403L277.1 13.8829L277.031 13.9349L276.971 13.9915L276.91 14.0575L276.854 14.1285L276.803 14.2039L276.762 14.2845L276.72 14.3694L276.687 14.4639L276.659 14.5582L276.641 14.6573L276.455 15.6351Z" fill="white"/>
<path d="M276.455 15.6351V15.6351L276.441 15.7151L276.437 15.8002L276.446 15.89L276.464 15.9796L276.497 16.0695L276.534 16.1545L276.585 16.2441L276.641 16.3244L276.706 16.4047L276.776 16.4755L276.85 16.5464L276.933 16.6031L277.017 16.6551L277.11 16.6975L277.203 16.7305L277.296 16.7495V16.7495L277.416 16.7683L277.532 16.7825L277.653 16.7968L277.774 16.8062L277.894 16.8108H278.02L278.141 16.8062L278.266 16.7968L278.392 16.7778L278.517 16.7541L278.647 16.7258L278.772 16.6834L278.902 16.6314L279.037 16.5747L279.167 16.4992L279.302 16.4189L279.116 17.5806V17.5806L279.042 17.6184L278.967 17.6561L278.893 17.6846L278.823 17.7129L278.754 17.7366L278.679 17.76L278.605 17.779L278.526 17.7932L278.443 17.8073L278.35 17.8167L278.252 17.8261L278.145 17.8357L278.025 17.8403H277.899L277.755 17.845H277.602V17.845L277.375 17.8403L277.142 17.8167L276.91 17.7837L276.678 17.727L276.451 17.6561L276.232 17.5664L276.023 17.4485L275.828 17.3114L275.647 17.151L275.489 16.9574L275.355 16.74L275.243 16.4898L275.164 16.2112L275.113 15.8947L275.099 15.5451L275.122 15.1578V15.1578L275.141 15.007L275.169 14.8321L275.206 14.6479L275.257 14.4494L275.327 14.2466L275.41 14.0434L275.517 13.8358L275.647 13.6373L275.795 13.4484L275.977 13.269L276.181 13.1083L276.413 12.9668L276.682 12.8488L276.984 12.7635L277.319 12.7069L277.695 12.688V12.688L277.876 12.6928L278.067 12.7117L278.257 12.7448L278.447 12.792L278.633 12.8628L278.814 12.9479L278.981 13.0611L279.134 13.1934L279.274 13.3541L279.39 13.5429L279.483 13.7601L279.548 14.0104L279.585 14.2937L279.589 14.6148L279.557 14.9738L279.487 15.3706L279.464 15.6585H276.079L276.293 14.7281H278.326V14.7281L278.336 14.6102L278.331 14.4968L278.322 14.3928L278.303 14.2986L278.271 14.2088L278.238 14.1285L278.192 14.0575L278.145 13.9915L278.09 13.9349L278.029 13.8875L277.96 13.8452L277.89 13.8073L277.816 13.7789L277.741 13.7601L277.662 13.746L277.579 13.7364V13.7364L277.491 13.7412L277.407 13.7553L277.328 13.7743L277.249 13.8026L277.17 13.8403L277.1 13.8829L277.031 13.9349L276.971 13.9915L276.91 14.0575L276.854 14.1285L276.803 14.2039L276.762 14.2845L276.72 14.3694L276.687 14.4639L276.659 14.5582L276.641 14.6573L276.455 15.6351" stroke="white" stroke-width="0.216"/>
<path d="M287.53 13.0704L287.47 13.0374L287.409 13.0091L287.344 12.976L287.275 12.9429L287.205 12.9146L287.126 12.8863L287.047 12.858L286.963 12.8295L286.875 12.806L286.787 12.787L286.689 12.7681L286.592 12.7541L286.485 12.7446L286.378 12.7352H286.267H286.151H286.035L285.914 12.7446L285.788 12.7587L285.659 12.7823L285.528 12.8201L285.399 12.8721L285.268 12.9383L285.138 13.0232L285.013 13.1271L284.892 13.2498L284.776 13.4009L284.665 13.5757L284.563 13.7835L284.465 14.0196L284.377 14.2843L284.303 14.5863L284.275 14.7562L284.256 14.9216L284.247 15.0868L284.252 15.2476L284.266 15.4079L284.298 15.5592L284.34 15.7007L284.391 15.8428L284.46 15.9702L284.544 16.0929L284.642 16.2014L284.753 16.3005L284.879 16.3854L285.022 16.4565L285.18 16.5179L285.357 16.5602L285.417 16.5745L285.487 16.5887L285.57 16.5982L285.663 16.6078L285.765 16.617H285.872H285.988L286.104 16.6078L286.225 16.5933L286.346 16.5699L286.462 16.5368L286.578 16.499L286.694 16.447L286.801 16.3854L286.898 16.31L286.991 16.2251L286.782 17.486L286.754 17.5096L286.727 17.5377L286.689 17.571L286.648 17.5993L286.596 17.6371L286.531 17.6702L286.457 17.7031L286.374 17.7314L286.267 17.7647L286.146 17.7881L286.007 17.8071L285.844 17.8259L285.663 17.8355L285.454 17.8401L285.217 17.8355L284.957 17.8213L284.744 17.7976L284.53 17.7505L284.317 17.6797L284.103 17.5853L283.899 17.4719L283.704 17.33L283.518 17.1649L283.346 16.976L283.193 16.7635L283.063 16.5273L282.951 16.263L282.868 15.9748L282.812 15.6583L282.793 15.323L282.803 14.9547L282.854 14.5629L282.891 14.3692L282.933 14.1803L282.979 13.9961L283.026 13.8213L283.077 13.656L283.137 13.4906L283.197 13.3349L283.262 13.1885L283.332 13.042L283.402 12.9052L283.481 12.7729L283.564 12.6501L283.648 12.5321L283.741 12.4187L283.834 12.3148L283.931 12.2157L284.038 12.1213L284.145 12.0314L284.256 11.9512L284.372 11.8757L284.498 11.8046L284.623 11.7434L284.753 11.6867L284.888 11.6347L285.032 11.5875L285.176 11.5497L285.324 11.5167L285.482 11.4883L285.64 11.4647L285.807 11.4458L285.974 11.4364L286.151 11.4316L286.299 11.4364L286.443 11.4458L286.583 11.4598L286.722 11.4789L286.852 11.4978L286.977 11.5261L287.098 11.5497L287.209 11.578L287.316 11.6064L287.409 11.6347L287.497 11.6631L287.572 11.6914L287.637 11.7151L287.692 11.7338L287.734 11.7528L287.762 11.7623L287.53 13.0704Z" fill="white"/>
<path d="M287.53 13.0704V13.0704L287.47 13.0374L287.409 13.0091L287.344 12.976L287.275 12.9429L287.205 12.9146L287.126 12.8863L287.047 12.858L286.963 12.8295L286.875 12.806L286.787 12.787L286.689 12.7681L286.592 12.7541L286.485 12.7446L286.378 12.7352H286.267H286.151V12.7352H286.035L285.914 12.7446L285.788 12.7587L285.659 12.7823L285.528 12.8201L285.399 12.8721L285.268 12.9383L285.138 13.0232L285.013 13.1271L284.892 13.2498L284.776 13.4009L284.665 13.5757L284.563 13.7835L284.465 14.0196L284.377 14.2843L284.303 14.5863V14.5863L284.275 14.7562L284.256 14.9216L284.247 15.0868L284.252 15.2476L284.266 15.4079L284.298 15.5592L284.34 15.7007L284.391 15.8428L284.46 15.9702L284.544 16.0929L284.642 16.2014L284.753 16.3005L284.879 16.3854L285.022 16.4565L285.18 16.5179L285.357 16.5602V16.5602L285.417 16.5745L285.487 16.5887L285.57 16.5982L285.663 16.6078L285.765 16.617H285.872H285.988L286.104 16.6078L286.225 16.5933L286.346 16.5699L286.462 16.5368L286.578 16.499L286.694 16.447L286.801 16.3854L286.898 16.31L286.991 16.2251L286.782 17.486V17.486L286.754 17.5096L286.727 17.5377L286.689 17.571L286.648 17.5993L286.596 17.6371L286.531 17.6702L286.457 17.7031L286.374 17.7314L286.267 17.7647L286.146 17.7881L286.007 17.8071L285.844 17.8259L285.663 17.8355L285.454 17.8401L285.217 17.8355L284.957 17.8213V17.8213L284.744 17.7976L284.53 17.7505L284.317 17.6797L284.103 17.5853L283.899 17.4719L283.704 17.33L283.518 17.1649L283.346 16.976L283.193 16.7635L283.063 16.5273L282.951 16.263L282.868 15.9748L282.812 15.6583L282.793 15.323L282.803 14.9547L282.854 14.5629V14.5629L282.891 14.3692L282.933 14.1803L282.979 13.9961L283.026 13.8213L283.077 13.656L283.137 13.4906L283.197 13.3349L283.262 13.1885L283.332 13.042L283.402 12.9052L283.481 12.7729L283.564 12.6501L283.648 12.5321L283.741 12.4187L283.834 12.3148L283.931 12.2157L284.038 12.1213L284.145 12.0314L284.256 11.9512L284.372 11.8757L284.498 11.8046L284.623 11.7434L284.753 11.6867L284.888 11.6347L285.032 11.5875L285.176 11.5497L285.324 11.5167L285.482 11.4883L285.64 11.4647L285.807 11.4458L285.974 11.4364L286.151 11.4316V11.4316L286.299 11.4364L286.443 11.4458L286.583 11.4598L286.722 11.4789L286.852 11.4978L286.977 11.5261L287.098 11.5497L287.209 11.578L287.316 11.6064L287.409 11.6347L287.497 11.6631L287.572 11.6914L287.637 11.7151L287.692 11.7338L287.734 11.7528L287.762 11.7623L287.53 13.0704" stroke="white" stroke-width="0.216"/>
<path d="M298.962 17.845H297.676L297.769 17.3209V17.2735L297.694 17.368L297.615 17.4529L297.537 17.5288L297.453 17.5948L297.369 17.656L297.286 17.7082L297.202 17.7507L297.114 17.7931L297.026 17.8261L296.938 17.8498L296.849 17.8735L296.756 17.8876L296.664 17.9018L296.575 17.9111L296.482 17.9161H296.39L296.148 17.897L295.925 17.845L295.721 17.7648L295.535 17.656L295.368 17.5191L295.219 17.3588L295.089 17.184L294.978 16.9857L294.885 16.7729L294.811 16.5513L294.76 16.3197L294.722 16.0789L294.708 15.838L294.713 15.5923L294.736 15.3515L294.779 15.1107L294.848 14.832L294.932 14.5675L295.029 14.3269L295.145 14.1001L295.266 13.8875L295.405 13.6987L295.549 13.5288L295.702 13.3728L295.865 13.2358L296.037 13.1177L296.213 13.014L296.39 12.9337L296.575 12.8675L296.761 12.8252L296.947 12.7966L297.137 12.7872L297.272 12.7919L297.402 12.8061L297.523 12.8296L297.634 12.8627L297.741 12.9006L297.834 12.943L297.927 12.995L298.01 13.0469L298.085 13.1035L298.154 13.1649L298.214 13.2263L298.27 13.2878L298.317 13.3492L298.359 13.4105L298.396 13.4673L298.423 13.524L298.749 11.668H300.012L298.962 17.845Z" fill="white"/>
<path d="M298.962 17.845H297.676L297.769 17.3209V17.2735V17.2735L297.694 17.368L297.615 17.4529L297.537 17.5288L297.453 17.5948L297.369 17.656L297.286 17.7082L297.202 17.7507L297.114 17.7931L297.026 17.8261L296.938 17.8498L296.849 17.8735L296.756 17.8876L296.664 17.9018L296.575 17.9111L296.482 17.9161H296.39V17.9161L296.148 17.897L295.925 17.845L295.721 17.7648L295.535 17.656L295.368 17.5191L295.219 17.3588L295.089 17.184L294.978 16.9857L294.885 16.7729L294.811 16.5513L294.76 16.3197L294.722 16.0789L294.708 15.838L294.713 15.5923L294.736 15.3515L294.779 15.1107V15.1107L294.848 14.832L294.932 14.5675L295.029 14.3269L295.145 14.1001L295.266 13.8875L295.405 13.6987L295.549 13.5288L295.702 13.3728L295.865 13.2358L296.037 13.1177L296.213 13.014L296.39 12.9337L296.575 12.8675L296.761 12.8252L296.947 12.7966L297.137 12.7872V12.7872L297.272 12.7919L297.402 12.8061L297.523 12.8296L297.634 12.8627L297.741 12.9006L297.834 12.943L297.927 12.995L298.01 13.0469L298.085 13.1035L298.154 13.1649L298.214 13.2263L298.27 13.2878L298.317 13.3492L298.359 13.4105L298.396 13.4673L298.423 13.524V13.524L298.749 11.668H300.012L298.962 17.845" stroke="white" stroke-width="0.216"/>
<path d="M296.859 16.7021L296.989 16.6928L297.11 16.6645L297.221 16.6313L297.328 16.5793L297.426 16.5227L297.519 16.4519L297.607 16.3717L297.686 16.2865L297.755 16.1922L297.821 16.0882L297.881 15.9795L297.932 15.8663L297.978 15.7483L298.015 15.6255L298.048 15.4979L298.071 15.3705L298.094 15.2381L298.108 15.1011V14.9737L298.104 14.8415L298.09 14.7188L298.071 14.6006L298.039 14.4874L298.001 14.3787L297.955 14.2844L297.899 14.1944L297.839 14.1189L297.769 14.0528L297.69 13.9962L297.607 13.9584L297.519 13.9348L297.421 13.9253L297.296 13.9348L297.18 13.9538L297.073 13.9915L296.966 14.0387L296.873 14.1001L296.78 14.1758L296.701 14.2559L296.622 14.3456L296.553 14.4494L296.488 14.5581L296.427 14.6714L296.376 14.7942L296.33 14.9217L296.293 15.0491L296.255 15.1862L296.228 15.3231L296.205 15.531L296.214 15.7577L296.246 15.9891L296.307 16.2111L296.399 16.4047L296.52 16.5604L296.674 16.6645L296.859 16.7021Z" fill="#FCB331"/>
<path d="M268.343 16.7965L268.157 17.8448H266.987L267.02 17.6511L267.043 17.4766L267.062 17.3444L267.08 17.2733L267.015 17.349L266.941 17.4244L266.853 17.4954L266.755 17.5615L266.644 17.6277L266.528 17.6843L266.407 17.7409L266.281 17.788L266.147 17.8306L266.012 17.8637L265.878 17.8922L265.738 17.911L265.603 17.9203L265.469 17.9251L265.339 17.911L265.213 17.8922L265.051 17.8496L264.902 17.8025L264.772 17.7409L264.656 17.6702L264.554 17.5946L264.461 17.5095L264.387 17.4198L264.322 17.3253L264.266 17.2263L264.22 17.1221L264.183 17.0184L264.155 16.9147L264.136 16.8059L264.122 16.6973L264.113 16.5933V16.4896L264.127 16.3054L264.155 16.1304L264.201 15.9652L264.261 15.8047L264.336 15.6536L264.419 15.5167L264.517 15.3845L264.629 15.2663L264.744 15.1576L264.874 15.0585L265.009 14.9689L265.148 14.8932L265.297 14.8274L265.45 14.7752L265.608 14.7327L265.771 14.7044H265.78L265.803 14.6995L265.836 14.6949L265.887 14.6903L265.942 14.6807L266.007 14.6761L266.077 14.6666L266.156 14.657L266.235 14.6477L266.314 14.6383L266.398 14.6336L266.472 14.6241L266.546 14.6195L266.615 14.6146L266.681 14.61H266.732H266.839L266.95 14.6146L267.052 14.6195H267.154L267.238 14.6241L267.303 14.6287L267.349 14.6336H267.363L267.373 14.6004L267.401 14.5155L267.424 14.4162L267.433 14.3267L267.415 14.2225L267.373 14.1282L267.317 14.0431L267.243 13.9723L267.154 13.911L267.057 13.8685L266.946 13.84L266.825 13.8308L266.695 13.826L266.555 13.8212H266.412L266.263 13.826L266.109 13.8356L265.961 13.8494L265.812 13.8637L265.668 13.8826L265.529 13.9016L265.395 13.9251L265.274 13.9488L265.162 13.9723L265.06 14.0008L264.977 14.029L264.912 14.062L264.86 14.0904L265.19 12.9522L265.292 12.9099L265.395 12.8721L265.506 12.8388L265.617 12.8153L265.729 12.7917L265.85 12.7728L265.97 12.754L266.096 12.7445L266.226 12.7351L266.36 12.7304L266.5 12.7256H266.644H266.792H266.946L267.108 12.7304L267.271 12.7351L267.401 12.7445L267.54 12.7681L267.684 12.8011L267.832 12.8436L267.976 12.9004L268.116 12.9665L268.255 13.0467L268.385 13.1364L268.501 13.2404L268.603 13.3538L268.696 13.4812L268.766 13.6229L268.812 13.774L268.84 13.9346V14.1141L268.812 14.303L268.343 16.7965Z" fill="white"/>
<path d="M268.343 16.7965L268.157 17.8448H266.987V17.8448L267.02 17.6511L267.043 17.4766L267.062 17.3444L267.08 17.2733V17.2733L267.015 17.349L266.941 17.4244L266.853 17.4954L266.755 17.5615L266.644 17.6277L266.528 17.6843L266.407 17.7409L266.281 17.788L266.147 17.8306L266.012 17.8637L265.878 17.8922L265.738 17.911L265.603 17.9203L265.469 17.9251L265.339 17.911L265.213 17.8922V17.8922L265.051 17.8496L264.902 17.8025L264.772 17.7409L264.656 17.6702L264.554 17.5946L264.461 17.5095L264.387 17.4198L264.322 17.3253L264.266 17.2263L264.22 17.1221L264.183 17.0184L264.155 16.9147L264.136 16.8059L264.122 16.6973L264.113 16.5933V16.4896V16.4896L264.127 16.3054L264.155 16.1304L264.201 15.9652L264.261 15.8047L264.336 15.6536L264.419 15.5167L264.517 15.3845L264.629 15.2663L264.744 15.1576L264.874 15.0585L265.009 14.9689L265.148 14.8932L265.297 14.8274L265.45 14.7752L265.608 14.7327L265.771 14.7044V14.7044H265.78L265.803 14.6995L265.836 14.6949L265.887 14.6903L265.942 14.6807L266.007 14.6761L266.077 14.6666L266.156 14.657L266.235 14.6477L266.314 14.6383L266.398 14.6336L266.472 14.6241L266.546 14.6195L266.615 14.6146L266.681 14.61H266.732V14.61H266.839L266.95 14.6146L267.052 14.6195H267.154L267.238 14.6241L267.303 14.6287L267.349 14.6336H267.363V14.6336L267.373 14.6004L267.401 14.5155L267.424 14.4162L267.433 14.3267V14.3267L267.415 14.2225L267.373 14.1282L267.317 14.0431L267.243 13.9723L267.154 13.911L267.057 13.8685L266.946 13.84L266.825 13.8308V13.8308L266.695 13.826L266.555 13.8212H266.412L266.263 13.826L266.109 13.8356L265.961 13.8494L265.812 13.8637L265.668 13.8826L265.529 13.9016L265.395 13.9251L265.274 13.9488L265.162 13.9723L265.06 14.0008L264.977 14.029L264.912 14.062L264.86 14.0904L265.19 12.9522V12.9522L265.292 12.9099L265.395 12.8721L265.506 12.8388L265.617 12.8153L265.729 12.7917L265.85 12.7728L265.97 12.754L266.096 12.7445L266.226 12.7351L266.36 12.7304L266.5 12.7256H266.644H266.792H266.946L267.108 12.7304L267.271 12.7351V12.7351L267.401 12.7445L267.54 12.7681L267.684 12.8011L267.832 12.8436L267.976 12.9004L268.116 12.9665L268.255 13.0467L268.385 13.1364L268.501 13.2404L268.603 13.3538L268.696 13.4812L268.766 13.6229L268.812 13.774L268.84 13.9346V14.1141L268.812 14.303L268.343 16.7965" stroke="white" stroke-width="0.216"/>
<path d="M267.223 15.5642L267.218 15.5407L267.2 15.517L267.172 15.5027L267.126 15.4933L267.075 15.4839L267.014 15.479H266.945H266.875L266.801 15.4839L266.722 15.4933L266.647 15.5027L266.573 15.5122L266.503 15.5216L266.439 15.5361L266.383 15.5501L266.332 15.5642L266.299 15.5736L266.262 15.5878L266.211 15.6067L266.16 15.6302L266.099 15.6586L266.039 15.6918L265.974 15.7247L265.914 15.7626L265.849 15.8097L265.788 15.8569L265.733 15.9137L265.682 15.9704L265.635 16.0318L265.603 16.0978L265.575 16.1734L265.561 16.2489L265.556 16.4094L265.579 16.5371L265.626 16.6314L265.686 16.7022L265.756 16.7496L265.835 16.7779L265.909 16.7921L265.983 16.7968L266.123 16.7921L266.248 16.7779L266.369 16.7588L266.475 16.7305L266.569 16.6976L266.657 16.6551L266.736 16.6127L266.805 16.5605L266.866 16.5136L266.922 16.4568L266.968 16.4048L267.005 16.3482L267.037 16.2916L267.065 16.2348L267.089 16.1828L267.102 16.1308L267.14 15.994L267.172 15.8381L267.2 15.6869L267.223 15.5642Z" fill="#ED1C2E"/>
<path d="M258.572 17.8451H257.309L258.363 11.6445H260.56L260.769 15.3233L262.287 11.6445H264.581L263.504 17.8451H262.241L263.039 13.2124H262.988L261.098 17.8451H259.673L259.663 17.6514L259.631 17.1367L259.589 16.4048L259.543 15.5642L259.496 14.7189L259.454 13.9774L259.422 13.439L259.413 13.2124H259.399H259.371H259.343L258.572 17.8451Z" fill="white"/>
<path d="M258.572 17.8451H257.309L258.363 11.6445H260.56L260.769 15.3233L262.287 11.6445H264.581L263.504 17.8451H262.241L263.039 13.2124H262.988L261.098 17.8451H259.673V17.8451L259.663 17.6514L259.631 17.1367L259.589 16.4048L259.543 15.5642L259.496 14.7189L259.454 13.9774L259.422 13.439L259.413 13.2124V13.2124H259.399H259.371H259.343V13.2124L258.572 17.8451" stroke="white" stroke-width="0.216"/>
<path d="M291.389 16.7965L291.199 17.8448H290.033L290.043 17.6511L290.048 17.4811V17.3537L290.057 17.297L289.996 17.3678L289.927 17.4386L289.843 17.5049L289.75 17.5709L289.653 17.6322L289.541 17.6889L289.425 17.7456L289.309 17.7929L289.184 17.8306L289.054 17.8685L288.923 17.8922L288.793 17.911L288.659 17.9203L288.529 17.9251L288.403 17.911L288.278 17.8922L288.111 17.8496L287.962 17.8025L287.832 17.7409L287.712 17.6702L287.609 17.5946L287.521 17.5095L287.447 17.4198L287.382 17.3253L287.326 17.2263L287.284 17.1221L287.247 17.0184L287.224 16.9147L287.205 16.8059L287.192 16.6973L287.182 16.5933V16.4896L287.192 16.3054L287.219 16.1304L287.261 15.9652L287.321 15.8047L287.391 15.6536L287.479 15.5167L287.577 15.3845L287.684 15.2663L287.805 15.1576L287.93 15.0585L288.064 14.9689L288.208 14.8932L288.352 14.8274L288.506 14.7752L288.659 14.7327L288.817 14.7044H288.826L288.849 14.6995L288.882 14.6949L288.928 14.6903L288.988 14.6807L289.054 14.6761L289.123 14.6666L289.197 14.657L289.276 14.6477L289.36 14.6383L289.439 14.6336L289.518 14.6241L289.592 14.6195L289.657 14.6146L289.722 14.61H289.773H289.885L289.996 14.6146L290.103 14.6195H290.205L290.294 14.6241L290.368 14.6287L290.409 14.6336H290.428L290.437 14.6004L290.451 14.5155L290.465 14.4162L290.475 14.3267L290.456 14.2225L290.419 14.1282L290.358 14.0431L290.289 13.9723L290.205 13.911L290.108 13.8685L290.005 13.84L289.894 13.8308L289.764 13.826L289.625 13.8212H289.481L289.332 13.826L289.179 13.8356L289.03 13.8494L288.882 13.8637L288.738 13.8826L288.598 13.9016L288.464 13.9251L288.343 13.9488L288.232 13.9723L288.129 14.0008L288.046 14.029L287.981 14.062L287.93 14.0904L288.255 12.9522L288.357 12.9099L288.464 12.8721L288.571 12.8388L288.682 12.8153L288.798 12.7917L288.914 12.7728L289.035 12.754L289.16 12.7445L289.29 12.7351L289.425 12.7304L289.56 12.7256H289.704H289.848H289.996L290.154 12.7304L290.312 12.7351L290.442 12.7445L290.581 12.7681L290.725 12.8011L290.874 12.8436L291.018 12.9004L291.162 12.9665L291.301 13.0467L291.431 13.1364L291.547 13.2404L291.654 13.3538L291.747 13.4812L291.816 13.6229L291.868 13.774L291.9 13.9346V14.1141L291.877 14.303L291.389 16.7965Z" fill="white"/>
<path d="M291.199 17.8781L291.227 17.8498L291.418 16.8015L291.362 16.792L291.171 17.8403L291.199 17.812V17.8781L291.222 17.8735L291.227 17.8498L291.199 17.8781Z" fill="white"/>
<path d="M290.005 17.8671L290.033 17.9226H291.199V17.8115H290.033L290.061 17.8671H290.005L290 17.9226H290.033L290.005 17.8671Z" fill="white"/>
<path d="M290.131 17.3159L290.06 17.2783L290.029 17.3537L290.021 17.4811V17.6511L290.005 17.8449H290.099L290.115 17.6511L290.131 17.4811L290.123 17.3537V17.3159L290.053 17.2783L290.131 17.3159Z" fill="white"/>
<path d="M288.273 17.9204L288.403 17.9392L288.528 17.9535L288.658 17.9489L288.793 17.9392L288.928 17.9204L289.057 17.8969L289.188 17.859L289.318 17.8213L289.434 17.7739L289.554 17.7173L289.666 17.6607L289.763 17.5947L289.861 17.5287L289.945 17.4623L290.019 17.3866L290.079 17.3159L290.033 17.2783L289.972 17.3491L289.907 17.4153L289.824 17.4811L289.736 17.5474L289.638 17.6041L289.526 17.6607L289.415 17.7173L289.299 17.7647L289.178 17.8025L289.048 17.8401L288.918 17.8638L288.793 17.8827L288.658 17.8922L288.528 17.8969L288.403 17.8827L288.282 17.8638L288.273 17.9204Z" fill="white"/>
<path d="M287.15 16.4897L287.155 16.5935L287.164 16.6975L287.178 16.8107L287.196 16.9195L287.22 17.0232L287.257 17.1318L287.299 17.2406L287.359 17.3397L287.424 17.4388L287.498 17.5288L287.591 17.6183L287.698 17.694L287.819 17.7694L287.953 17.8308L288.107 17.8781L288.274 17.9205L288.283 17.8639L288.116 17.8214L287.972 17.7741L287.846 17.7128L287.726 17.6467L287.628 17.5711L287.544 17.4908L287.47 17.4009L287.405 17.3114L287.354 17.2121L287.313 17.1131L287.275 17.014L287.252 16.91L287.234 16.8015L287.22 16.6975L287.21 16.5935L287.215 16.4897H287.15Z" fill="white"/>
<path d="M288.817 14.6768L288.655 14.7051L288.497 14.7475L288.343 14.7994L288.195 14.8656L288.051 14.9412L287.911 15.0354L287.786 15.135L287.665 15.2482L287.554 15.3661L287.456 15.4984L287.363 15.64L287.294 15.7958L287.234 15.9566L287.192 16.1265L287.164 16.306L287.15 16.4902H287.215L287.22 16.306L287.247 16.1357L287.289 15.9754L287.35 15.8149L287.419 15.6684L287.503 15.5364L287.6 15.4039L287.702 15.2861L287.823 15.1819L287.949 15.0828L288.079 14.9979L288.223 14.9222L288.362 14.8562L288.515 14.8042L288.664 14.7617L288.817 14.7334V14.6768Z" fill="white"/>
<path d="M289.773 14.5771H289.722L289.657 14.592L289.592 14.5996L289.518 14.6073L289.439 14.6221L289.36 14.63L289.276 14.6454L289.197 14.6602L289.123 14.6755L289.054 14.6906L288.989 14.6983L288.928 14.7136L288.882 14.721L288.844 14.7284L288.826 14.7363H288.817V14.8273H288.826L288.854 14.8194L288.882 14.812L288.928 14.8045L288.989 14.7892L289.054 14.7818L289.123 14.7665L289.197 14.7512L289.276 14.7363L289.36 14.721L289.439 14.7136L289.518 14.6983L289.592 14.6906L289.657 14.6829H289.722H289.773V14.5771Z" fill="white"/>
<path d="M290.4 14.6639L290.428 14.6242H290.409L290.367 14.6164L290.293 14.6087L290.205 14.5927H290.102H289.996L289.884 14.5771H289.773V14.6877H289.884H289.996L290.102 14.7037H290.205H290.293L290.367 14.7115L290.409 14.7197H290.428L290.455 14.6799L290.428 14.7197L290.451 14.7275L290.455 14.6799L290.4 14.6639Z" fill="white"/>
<path d="M290.479 14.3267H290.471L290.463 14.4162L290.439 14.5107L290.416 14.5958L290.4 14.6287L290.494 14.6382L290.51 14.605L290.534 14.5201L290.557 14.4162L290.581 14.3267H290.573H290.479Z" fill="white"/>
<path d="M289.894 13.8588V13.8635L290.001 13.8683L290.098 13.8968L290.191 13.9391L290.27 13.9958L290.335 14.0619L290.391 14.1422L290.428 14.2273L290.447 14.3265H290.502L290.484 14.2177L290.447 14.1139L290.382 14.0242L290.307 13.9486L290.219 13.8824L290.117 13.8398L290.01 13.8115L289.894 13.7974V13.8021V13.8588Z" fill="white"/>
<path d="M287.902 14.0855L287.948 14.1138L287.994 14.0901L288.055 14.057L288.134 14.0287L288.236 14.0006L288.347 13.9769L288.468 13.9533L288.603 13.9296L288.738 13.9107L288.881 13.8919L289.03 13.8776L289.179 13.8635L289.332 13.8539H289.481H289.625H289.764L289.894 13.8587V13.8021L289.764 13.7973L289.625 13.7881H289.481L289.332 13.7973L289.179 13.8069L289.03 13.821L288.881 13.8353L288.738 13.8539L288.594 13.873L288.459 13.8967L288.338 13.9203L288.227 13.9438L288.125 13.9721L288.036 14.0006L287.967 14.0335L287.911 14.0666L287.958 14.0949L287.902 14.0855Z" fill="white"/>
<path d="M288.245 12.9243L288.227 12.948L287.902 14.0861L287.958 14.0955L288.283 12.9574L288.264 12.9809L288.245 12.9243L288.232 12.9291L288.227 12.948L288.245 12.9243Z" fill="white"/>
<path d="M290.312 12.7065L290.154 12.6972L289.996 12.6924H289.848H289.704H289.56L289.425 12.7019L289.29 12.7065L289.16 12.7161L289.035 12.7255L288.91 12.7444L288.794 12.7632L288.677 12.7869L288.566 12.8105L288.455 12.8435L288.348 12.8813L288.246 12.9238L288.264 12.9804L288.367 12.9381L288.473 12.9003L288.575 12.8672L288.687 12.8435L288.803 12.8199L288.919 12.801L289.035 12.7821L289.16 12.7727L289.29 12.7632L289.425 12.7585H289.56H289.704H289.848H289.996L290.154 12.7632H290.312V12.7065Z" fill="white"/>
<path d="M291.905 14.308L291.928 14.1144V13.935L291.896 13.7696L291.844 13.6139L291.77 13.4674L291.677 13.3353L291.566 13.2172L291.449 13.1132L291.315 13.0235L291.176 12.9386L291.027 12.8724L290.883 12.8157L290.73 12.7732L290.586 12.7401L290.442 12.7166L290.312 12.707V12.7637L290.442 12.7732L290.577 12.7967L290.721 12.8298L290.864 12.8724L291.008 12.9291L291.148 12.9952L291.287 13.0708L291.412 13.1605L291.528 13.2643L291.631 13.373L291.723 13.4957L291.789 13.6327L291.84 13.779L291.872 13.935V14.1144L291.849 14.2987L291.905 14.308Z" fill="white"/>
<path d="M291.417 16.8012L291.904 14.3076L291.848 14.2983L291.361 16.7917L291.417 16.8012Z" fill="white"/>
<path d="M290.265 15.5638L290.256 15.5357L290.238 15.5118L290.205 15.4977L290.159 15.4835L290.108 15.4786L290.047 15.4741H289.977L289.908 15.4786L289.834 15.4881L289.759 15.4977L289.685 15.5071L289.616 15.5166L289.546 15.5307L289.485 15.5403L289.425 15.5544L289.379 15.5638L289.346 15.5686L289.309 15.5826L289.263 15.5969L289.211 15.6157L289.151 15.644L289.095 15.6723L289.03 15.7055L288.97 15.748L288.909 15.7905L288.849 15.8426L288.798 15.8943L288.747 15.9559L288.705 16.0217L288.673 16.0928L288.645 16.1684L288.631 16.2485L288.626 16.409L288.649 16.5367L288.687 16.631L288.742 16.7018L288.812 16.7492L288.891 16.7775L288.97 16.7917L289.049 16.7964L289.188 16.7917L289.318 16.7775L289.439 16.7538L289.546 16.7209L289.648 16.683L289.736 16.6404L289.82 16.5932L289.894 16.5367L289.959 16.4846L290.015 16.4232L290.066 16.3665L290.108 16.3053L290.14 16.2485L290.163 16.1919L290.182 16.135L290.196 16.0833L290.214 15.951L290.238 15.8142L290.256 15.6818L290.265 15.5638Z" fill="#FCB331"/>
<path d="M291.738 17.845H293.047L293.517 15.1578L293.535 15.0541L293.563 14.9501L293.591 14.8462L293.628 14.7425L293.674 14.6385L293.73 14.5394L293.79 14.4448L293.865 14.3552L293.948 14.2748L294.041 14.1994L294.148 14.1284L294.269 14.0718L294.403 14.0246L294.552 13.9869L294.714 13.9584L294.895 13.949H294.961H294.997H295.011L295.22 12.7354L295.09 12.7447L294.965 12.7589L294.849 12.7824L294.738 12.8155L294.635 12.8534L294.538 12.9006L294.445 12.9525L294.357 13.0092L294.273 13.0754L294.194 13.1414L294.12 13.2171L294.046 13.2926L293.976 13.3728L293.907 13.4627L293.837 13.5475L293.772 13.6421L293.911 12.7872H292.606L291.738 17.845Z" fill="white"/>
<path d="M291.738 17.845H293.047V17.845L293.517 15.1578V15.1578L293.535 15.0541L293.563 14.9501L293.591 14.8462L293.628 14.7425L293.674 14.6385L293.73 14.5394L293.79 14.4448L293.865 14.3552L293.948 14.2748L294.041 14.1994L294.148 14.1284L294.269 14.0718L294.403 14.0246L294.552 13.9869L294.714 13.9584L294.895 13.949V13.949H294.961H294.997H295.011V13.949L295.22 12.7354V12.7354L295.09 12.7447L294.965 12.7589L294.849 12.7824L294.738 12.8155L294.635 12.8534L294.538 12.9006L294.445 12.9525L294.357 13.0092L294.273 13.0754L294.194 13.1414L294.12 13.2171L294.046 13.2926L293.976 13.3728L293.907 13.4627L293.837 13.5475L293.772 13.6421L293.911 12.7872H292.606L291.738 17.845V17.845" stroke="white" stroke-width="0.216"/>
<path d="M279.441 17.845H280.75H280.774L281.219 15.1578L281.238 15.0541L281.261 14.9548L281.284 14.8558L281.317 14.7613L281.354 14.6668L281.4 14.5773L281.456 14.492L281.521 14.4119L281.596 14.3408L281.679 14.2703L281.781 14.2135L281.893 14.1615L282.023 14.1189L282.167 14.0812L282.325 14.0575L282.506 14.0434H282.52L282.538 14.0481L282.561 14.0529H282.585L282.608 14.0575L282.626 14.0623L282.64 14.067H282.645L282.65 14.0481L282.664 13.9915L282.682 13.9066L282.705 13.8026L282.738 13.6798L282.77 13.5475L282.812 13.4153L282.854 13.2831L282.891 13.1934L282.938 13.1036L282.984 13.014L283.03 12.9337L283.072 12.8628L283.105 12.8061L283.128 12.7731L283.137 12.7589H283.133L283.114 12.7543L283.091 12.7495L283.058 12.7447H283.026L282.988 12.74L282.956 12.7354H282.924L282.78 12.7447L282.65 12.7589L282.529 12.7824L282.417 12.8109L282.311 12.8487L282.213 12.8958L282.125 12.9431L282.041 12.9997L281.962 13.0611L281.888 13.1319L281.819 13.2028L281.749 13.2831L281.679 13.3634L281.614 13.4531L281.545 13.5475L281.475 13.6421L281.642 12.7872H280.309L279.441 17.845Z" fill="white"/>
<path d="M279.441 17.845H280.75H280.774L281.219 15.1578V15.1578L281.238 15.0541L281.261 14.9548L281.284 14.8558L281.317 14.7613L281.354 14.6668L281.4 14.5773L281.456 14.492L281.521 14.4119L281.596 14.3408L281.679 14.2703L281.781 14.2135L281.893 14.1615L282.023 14.1189L282.167 14.0812L282.325 14.0575L282.506 14.0434V14.0434H282.52L282.538 14.0481L282.561 14.0529H282.585L282.608 14.0575L282.626 14.0623L282.64 14.067H282.645V14.067L282.65 14.0481L282.664 13.9915L282.682 13.9066L282.705 13.8026L282.738 13.6798L282.77 13.5475L282.812 13.4153L282.854 13.2831V13.2831L282.891 13.1934L282.938 13.1036L282.984 13.014L283.03 12.9337L283.072 12.8628L283.105 12.8061L283.128 12.7731L283.137 12.7589V12.7589H283.133L283.114 12.7543L283.091 12.7495L283.058 12.7447H283.026L282.988 12.74L282.956 12.7354H282.924V12.7354L282.78 12.7447L282.65 12.7589L282.529 12.7824L282.417 12.8109L282.311 12.8487L282.213 12.8958L282.125 12.9431L282.041 12.9997L281.962 13.0611L281.888 13.1319L281.819 13.2028L281.749 13.2831L281.679 13.3634L281.614 13.4531L281.545 13.5475L281.475 13.6421L281.642 12.7872H280.309L279.441 17.845V17.845" stroke="white" stroke-width="0.216"/>
<path fill-rule="evenodd" clip-rule="evenodd" d="M363.219 6.21826L360.59 22.548H364.796L367.426 6.21826H363.219ZM357.051 6.21777L353.04 17.4492L352.566 15.0307L352.566 15.0315L352.462 14.4894C351.976 13.4322 350.852 11.423 348.729 9.7082C348.102 9.20135 347.469 8.76878 346.858 8.39929L350.503 22.5475H354.885L361.578 6.21777H357.051ZM373.467 10.7517C373.467 8.90553 377.564 9.14276 379.364 10.1453L379.964 6.63806C379.964 6.63806 378.112 5.92603 376.181 5.92603C374.093 5.92603 369.136 6.84868 369.136 11.3319C369.136 15.5511 374.954 15.6035 374.954 17.8187C374.954 20.0338 369.736 19.6379 368.014 18.2406L367.388 21.9064C367.388 21.9064 369.266 22.8291 372.137 22.8291C375.007 22.8291 379.338 21.3263 379.338 17.2386C379.338 12.9929 373.467 12.5975 373.467 10.7517ZM390.632 6.21826H387.25C385.689 6.21826 385.308 7.43522 385.308 7.43522L379.035 22.548H383.42L384.297 20.1226H389.644L390.138 22.548H394L390.632 6.21826ZM385.509 16.7716L387.719 10.6606L388.963 16.7716H385.509Z" fill="#005BAC"/>
<path fill-rule="evenodd" clip-rule="evenodd" d="M351.031 7.25565C351.031 7.25565 350.853 5.8291 348.96 5.8291H342.081L342 6.0972C342 6.0972 345.307 6.74455 348.479 9.16984C351.511 11.4878 352.5 14.3773 352.5 14.3773L351.031 7.25565Z" fill="#F6AC1D"/>
<path fill-rule="evenodd" clip-rule="evenodd" d="M466.97 23.1122C467.308 23.1122 467.467 22.9291 467.467 22.66C467.467 22.3737 467.288 22.2021 466.965 22.2021H466.468V23.1122H466.97ZM466.926 21.8298C467.205 21.8298 467.345 21.6581 467.345 21.389C467.345 21.1256 467.205 20.9883 466.911 20.9883H466.467V21.8298H466.926ZM466 20.605H467.008C467.5 20.605 467.824 20.8625 467.824 21.3491C467.824 21.6295 467.698 21.87 467.477 21.9845V21.9903C467.78 22.0762 467.94 22.3566 467.94 22.6772C467.94 23.2154 467.573 23.5015 467.042 23.5015H466V20.605Z" fill="#FF8C00"/>
<path fill-rule="evenodd" clip-rule="evenodd" d="M470.576 20.605C470.988 20.605 471.449 20.7307 471.745 21.0094L471.462 21.381C471.252 21.1952 470.927 21.0641 470.601 21.0641C469.973 21.0641 469.518 21.485 469.518 22.0478C469.518 22.6106 469.973 23.0424 470.619 23.0424C470.964 23.0424 471.339 22.8949 471.579 22.6707L471.819 23.0589C471.536 23.3266 471.062 23.5015 470.576 23.5015C469.592 23.5015 468.909 22.8839 468.909 22.0531C468.909 21.2334 469.598 20.605 470.576 20.605Z" fill="#FF8C00"/>
<path fill-rule="evenodd" clip-rule="evenodd" d="M474.59 19.2173H475.076V18.6738H474.59V19.2173ZM473.557 19.2173H474.049V18.6738H473.557V19.2173ZM475.095 20.8067C475.076 20.3393 474.744 20.0923 474.338 20.0923C473.877 20.0923 473.514 20.3554 473.428 20.8067H475.095ZM474.35 19.6896C475.23 19.6896 475.697 20.2642 475.697 20.9625C475.697 21.0324 475.685 21.1076 475.673 21.1829H473.409C473.44 21.7682 473.92 22.0853 474.48 22.0853C474.812 22.0853 475.15 21.9616 475.396 21.7682L475.648 22.1497C475.347 22.3913 474.873 22.5364 474.443 22.5364C473.465 22.5364 472.788 21.9187 472.788 21.1129C472.788 20.2481 473.465 19.6896 474.35 19.6896Z" fill="#FF8C00"/>
<path fill-rule="evenodd" clip-rule="evenodd" d="M478.606 20.605H481.515V23.5015H480.876V21.0801H479.244V23.5015H478.606V20.605Z" fill="#FF8C00"/>
<path fill-rule="evenodd" clip-rule="evenodd" d="M483.919 23.0047C484.403 23.0047 484.802 22.6551 484.802 22.0365C484.802 21.4449 484.445 21.063 483.937 21.063C483.478 21.063 483.054 21.3535 483.054 22.0419C483.054 22.5261 483.356 23.0047 483.919 23.0047ZM482.486 20.6696H483.03V20.9116C483.03 21.0245 483.012 21.116 483.012 21.116H483.024C483.217 20.7879 483.605 20.605 484.052 20.605C484.881 20.605 485.395 21.1859 485.395 22.0304C485.395 22.8963 484.814 23.4559 484.01 23.4559C483.623 23.4559 483.272 23.2837 483.06 22.9932H483.048C483.048 22.9932 483.072 23.0901 483.072 23.2299V24.467H482.486V20.6696Z" fill="#FF8C00"/>
<path fill-rule="evenodd" clip-rule="evenodd" d="M487.338 23.0432C488.014 23.0432 488.576 22.6279 488.576 22.0486C488.576 21.4747 488.014 21.0649 487.338 21.0649C486.655 21.0649 486.1 21.4747 486.1 22.0486C486.1 22.6279 486.655 23.0432 487.338 23.0432ZM487.331 20.605C488.405 20.605 489.274 21.2116 489.274 22.0478C489.274 22.8894 488.405 23.5015 487.338 23.5015C486.263 23.5015 485.395 22.8894 485.395 22.0478C485.395 21.2116 486.263 20.605 487.331 20.605Z" fill="#FF8C00"/>
<path fill-rule="evenodd" clip-rule="evenodd" d="M489.273 20.605H489.77V23.2085H490.768V20.605H491.271V23.2085H492.27V20.605H492.767V23.2085H493.151V24.467H492.676V23.7268H489.273V20.605Z" fill="#FF8C00"/>
<path fill-rule="evenodd" clip-rule="evenodd" d="M497.398 21.7425C497.379 21.2669 497.047 21.0156 496.641 21.0156C496.18 21.0156 495.817 21.2834 495.731 21.7425H497.398ZM496.653 20.605C497.533 20.605 498 21.1897 498 21.9001C498 21.9713 497.988 22.0478 497.976 22.1244H495.712C495.743 22.72 496.223 23.0424 496.783 23.0424C497.115 23.0424 497.453 22.9167 497.699 22.72L497.951 23.1081C497.65 23.3539 497.176 23.5015 496.746 23.5015C495.768 23.5015 495.091 22.8731 495.091 22.0533C495.091 21.1734 495.768 20.605 496.653 20.605Z" fill="#FF8C00"/>
<path fill-rule="evenodd" clip-rule="evenodd" d="M474.081 17.6604C473.989 17.7359 473.881 17.7206 473.804 17.6301L473.067 16.665C472.391 15.775 471.53 15.2171 469.932 15.2171C466.92 15.2171 465.031 13.0905 465.031 9.71182C465.031 6.31816 466.92 4.19141 469.932 4.19141C472.944 4.19141 474.819 6.31816 474.819 9.71182C474.819 11.4312 474.204 13.1807 473.174 13.7842C472.99 13.89 472.99 13.935 473.174 13.9954C474.065 14.312 474.48 14.6892 474.957 15.2924L475.648 16.2123C475.725 16.3028 475.709 16.4082 475.617 16.484L474.081 17.6604ZM469.932 13.0449C471.423 13.0449 472.314 11.778 472.314 9.71174C472.314 7.6 471.423 6.37842 469.932 6.37842C468.472 6.37842 467.535 7.6 467.535 9.71174C467.535 11.778 468.472 13.0449 469.932 13.0449Z" fill="#0023A0"/>
<path fill-rule="evenodd" clip-rule="evenodd" d="M478.606 14.6173C478.606 14.7374 478.546 14.8121 478.45 14.8121H476.822C476.726 14.8121 476.666 14.7374 476.666 14.6173V4.38636C476.666 4.26665 476.726 4.19141 476.822 4.19141H478.45C478.546 4.19141 478.606 4.26665 478.606 4.38636V14.6173Z" fill="#0023A0"/>
<path fill-rule="evenodd" clip-rule="evenodd" d="M492.229 11.5915C491.954 12.6252 491.724 13.6139 491.526 14.6325C491.51 14.7523 491.434 14.8121 491.312 14.8121H488.515C488.393 14.8121 488.316 14.7523 488.301 14.6325C488.133 13.7638 487.965 12.9698 487.751 12.1456L487.277 10.1985C487.185 9.80917 487.063 9.1797 486.971 8.6553C486.941 8.4457 486.758 8.4457 486.727 8.6553C486.635 9.1797 486.513 9.79398 486.421 10.1985L485.947 12.1456C485.749 12.9698 485.581 13.7638 485.397 14.6325C485.382 14.7523 485.305 14.8121 485.183 14.8121H482.387C482.264 14.8121 482.188 14.7523 482.172 14.6325C481.974 13.6139 481.745 12.6252 481.47 11.5915L479.59 4.40128C479.544 4.28129 479.62 4.19141 479.758 4.19141H481.867C481.989 4.19141 482.066 4.25147 482.096 4.35613L483.135 8.40069C483.395 9.41939 483.609 10.7227 483.701 11.6963C483.716 11.891 483.945 11.9062 483.976 11.6963C484.113 10.7376 484.358 9.41939 484.648 8.40069L485.764 4.35613C485.794 4.25147 485.871 4.19141 485.978 4.19141H487.72C487.827 4.19141 487.904 4.25147 487.934 4.35613L489.065 8.40069C489.355 9.41939 489.6 10.7376 489.738 11.6963C489.753 11.9062 489.982 11.891 489.997 11.6963C490.074 10.7227 490.303 9.41939 490.563 8.40069L491.602 4.35613C491.633 4.25147 491.709 4.19141 491.831 4.19141H493.94C494.078 4.19141 494.155 4.28129 494.108 4.40128L492.229 11.5915Z" fill="#0023A0"/>
<path fill-rule="evenodd" clip-rule="evenodd" d="M498 14.6173C498 14.7374 497.94 14.8121 497.845 14.8121H496.216C496.121 14.8121 496.061 14.7374 496.061 14.6173V4.38636C496.061 4.26665 496.121 4.19141 496.216 4.19141H497.845C497.94 4.19141 498 4.26665 498 4.38636V14.6173Z" fill="#0023A0"/>
<path fill-rule="evenodd" clip-rule="evenodd" d="M452.819 19.998C452.568 19.998 452.359 20.0853 452.23 20.2438C451.9 20.6493 452.048 21.3631 452.553 21.8032C452.774 21.9952 453.091 22.1101 453.403 22.1101C453.72 22.1101 453.985 21.9913 454.148 21.776C454.442 21.3832 454.273 20.8264 453.718 20.3581C453.443 20.1261 453.124 19.998 452.819 19.998ZM455.587 17.9608C455.341 17.8892 455.157 17.9425 455.067 18.1077C454.93 18.3576 455.031 18.852 455.308 19.2827C455.588 19.7192 455.826 19.9404 456.015 19.9404C456.081 19.9404 456.139 19.913 456.184 19.8615C456.29 19.7409 456.324 19.4883 456.28 19.1687C456.236 18.8422 456.035 18.1705 455.587 17.9608ZM461.069 27.859C461.323 28.1726 460.937 28.4911 460.649 28.2366C457.776 25.6978 455.36 24.9787 452.97 24.879C451.701 24.8262 450.44 24.9474 449.122 25.0636C448.859 25.0868 448.594 25.1098 448.325 25.131C448.208 25.1405 448.09 25.1493 447.972 25.158C447.507 25.2079 447.036 25.2345 446.559 25.2345C444.31 25.2345 442.188 24.6848 440.251 23.5999C438.307 22.5121 436.762 20.9926 435.659 19.0835C434.558 17.1786 434 15.0737 434 12.8271C434 10.5829 434.558 8.469 435.657 6.54444C436.758 4.61699 438.286 3.08246 440.196 1.98382C442.107 0.885859 444.192 0.329102 446.392 0.329102C448.69 0.329102 450.838 0.879113 452.776 1.96399C454.719 3.0519 456.269 4.57596 457.382 6.49446C458.493 8.41062 459.056 10.521 459.056 12.7671C459.056 13.6341 458.972 14.4808 458.807 15.3043C458.785 15.4238 458.755 15.5686 458.711 15.7374C458.679 15.8725 458.644 16.0071 458.608 16.1409L458.597 16.1351C458.375 16.8461 457.96 17.8524 457.189 19.1444C457.106 19.2803 457.06 19.1768 457.049 19.1008C456.779 17.2005 455.944 15.7574 454.473 14.8253C454.449 14.81 454.424 14.7953 454.399 14.7804C454.158 14.6324 453.901 14.4979 453.626 14.3768C453.275 14.2227 452.897 14.0899 452.49 13.9803C452.241 13.9134 451.685 13.9421 451.886 13.7425C451.97 13.6603 453.174 13.6414 454.559 13.729C454.586 13.7307 454.613 13.7323 454.64 13.7341C454.666 13.4444 454.679 13.1475 454.679 12.8428C454.679 10.4716 453.892 8.53825 452.274 6.93268C450.654 5.32601 448.76 4.54471 446.483 4.54471C444.152 4.54471 442.261 5.32684 440.704 6.93598C439.139 8.55311 438.378 10.4702 438.378 12.7968C438.378 15.1186 439.16 17.0276 440.77 18.633C442.379 20.2386 444.248 21.0193 446.483 21.0193C446.59 21.0193 446.696 21.016 446.802 21.0127C446.799 20.9857 446.798 20.9587 446.795 20.9322C446.667 19.2952 446.64 17.9352 446.977 18.4839C447.096 18.6779 447.215 18.8611 447.333 19.0375C447.773 19.6947 448.21 20.2357 448.644 20.6842C448.666 20.7066 448.687 20.7285 448.709 20.7506C450.298 22.3593 451.862 22.7551 453.525 23.1621C453.56 23.171 453.595 23.1797 453.631 23.1882C453.903 23.2551 454.178 23.3229 454.456 23.3971C456.432 23.9231 458.572 24.7712 461.069 27.859Z" fill="#FF8C00"/>
</svg>
