<svg width="55" height="24" viewBox="0 0 55 24" fill="none" xmlns="http://www.w3.org/2000/svg">
<rect width="55" height="24" rx="12" fill="white"/>
<path fill-rule="evenodd" clip-rule="evenodd" d="M21.4733 11.0401L18.6733 13.8801L19.34 17.8801C19.3756 18.0524 19.3416 18.2318 19.2454 18.3792C19.1493 18.5265 18.9987 18.6299 18.8267 18.6667H18.72C18.6184 18.6672 18.5181 18.6443 18.4267 18.6001L15 16.6667L11.54 18.5801C11.4485 18.632 11.3452 18.6596 11.24 18.6601H11.2067C11.0856 18.651 10.9698 18.607 10.8733 18.5334C10.7818 18.4619 10.7106 18.3676 10.6667 18.2601C10.637 18.1419 10.637 18.0182 10.6667 17.9001L11.3333 13.9001L8.52001 11.0401C8.40089 10.9165 8.33403 10.7517 8.33335 10.5801C8.33223 10.4093 8.39666 10.2447 8.51335 10.1201C8.60838 10.0207 8.73179 9.95321 8.86668 9.92673L12.7133 9.3334L14.4333 5.6934C14.4875 5.58863 14.5685 5.50011 14.6681 5.43686C14.7676 5.37362 14.8822 5.33792 15 5.3334C15.0953 5.3317 15.1895 5.35467 15.2733 5.40007C15.3974 5.46529 15.4977 5.56793 15.56 5.6934L17.28 9.3334L21.1267 9.9134C21.2968 9.9444 21.4483 10.0403 21.549 10.1809C21.6498 10.3214 21.692 10.4956 21.6667 10.6667C21.6442 10.8088 21.5764 10.9397 21.4733 11.0401V11.0401Z" fill="#FFD304"/>
</svg>
